<svg version="1.1" id="Layer_1" xmlns="http://www.w3.org/2000/svg" xmlns:xlink="http://www.w3.org/1999/xlink" x="0px" y="0px"
	 width="100%" viewBox="0 0 2000 2000" enable-background="new 0 0 2000 2000" xml:space="preserve">
<path fill="#FFFFFF" opacity="1.000000" stroke="none" 
	d="
M1355.000000,2001.000000 
	C903.333313,2001.000000 452.166656,2001.000000 1.000000,2001.000000 
	C1.000000,1334.333374 1.000000,667.666687 1.000000,1.000000 
	C667.666687,1.000000 1334.333374,1.000000 2001.000000,1.000000 
	C2001.000000,667.666687 2001.000000,1334.333374 2001.000000,2001.000000 
	C1785.833374,2001.000000 1570.666626,2001.000000 1355.000000,2001.000000 
M1182.617798,1310.499390 
	C1182.617920,1216.850586 1182.591919,1123.201660 1182.705811,1029.552979 
	C1182.710693,1025.500732 1181.559448,1023.583313 1177.730225,1021.859802 
	C1153.757568,1011.069824 1141.526855,983.304199 1149.651733,958.930298 
	C1158.249390,933.138245 1183.758911,918.021179 1209.739502,923.321960 
	C1231.484863,927.758667 1248.497803,945.904907 1251.037354,967.370972 
	C1253.849121,991.137634 1242.344849,1012.264038 1220.962158,1021.977478 
	C1217.446411,1023.574524 1216.047607,1025.253662 1216.053101,1029.293701 
	C1216.185425,1127.789429 1216.184448,1226.285156 1216.065918,1324.780884 
	C1216.060547,1329.250122 1217.063477,1330.748535 1221.819214,1330.714111 
	C1252.649658,1330.490234 1283.482300,1330.597656 1314.314331,1330.582764 
	C1315.766724,1330.582153 1317.219116,1330.449707 1319.160767,1330.354736 
	C1319.160767,1328.020874 1319.160522,1326.052734 1319.160645,1324.084595 
	C1319.162598,1237.921631 1319.125366,1151.758545 1319.282837,1065.595947 
	C1319.290649,1061.266479 1318.001709,1059.279419 1314.130005,1057.453613 
	C1291.930664,1046.984619 1280.324707,1022.262573 1286.002441,998.291016 
	C1291.597168,974.670166 1313.273438,957.835022 1337.493652,958.299866 
	C1362.090454,958.771912 1383.340698,976.461365 1387.933594,1000.287781 
	C1392.624634,1024.623291 1380.243042,1048.368896 1357.425171,1058.251831 
	C1354.001587,1059.734497 1352.900635,1061.420532 1352.906006,1065.176025 
	C1353.031860,1151.838867 1353.001099,1238.501831 1352.999390,1325.164795 
	C1352.999390,1326.792725 1352.999390,1328.420776 1352.999390,1330.429810 
	C1369.402466,1330.429810 1385.358154,1330.480713 1401.312988,1330.389893 
	C1404.795532,1330.370117 1408.344971,1330.187866 1411.744995,1329.496948 
	C1436.970947,1324.371704 1452.996338,1304.174316 1452.999634,1277.423950 
	C1453.024292,1071.099365 1453.013550,864.774841 1453.001221,658.450317 
	C1453.001099,656.863647 1452.827515,655.276917 1452.717773,653.398499 
	C1450.596680,653.398499 1448.949951,653.398438 1447.303345,653.398499 
	C1412.138184,653.399109 1376.973022,653.399963 1341.807861,653.400269 
	C1301.976196,653.400635 1262.144043,653.508850 1222.313721,653.269104 
	C1217.075684,653.237671 1215.783936,654.752502 1216.044922,659.730591 
	C1216.463135,667.708374 1216.374512,675.732483 1216.065308,683.720215 
	C1215.907959,687.787048 1217.178833,689.752441 1221.040527,691.476685 
	C1252.592896,705.564026 1261.603882,746.400635 1239.138184,772.591492 
	C1225.377441,788.633972 1202.986084,795.023376 1183.447021,788.483032 
	C1162.459473,781.457764 1148.681519,763.414368 1147.260864,741.094116 
	C1145.970947,720.828308 1158.008423,700.719055 1177.279541,691.549316 
	C1180.195435,690.161743 1181.104004,688.663574 1181.076904,685.588989 
	C1180.935669,669.590942 1180.967041,653.590820 1181.012329,637.591736 
	C1181.046631,625.491943 1186.643433,619.884521 1198.803955,619.878906 
	C1281.467041,619.840759 1364.130127,619.841064 1446.793213,619.828979 
	C1448.729370,619.828735 1450.665405,619.828979 1452.668945,619.828979 
	C1452.668945,607.928284 1452.668945,596.696533 1452.668945,585.303101 
	C1316.039551,585.303101 1179.755615,585.303101 1043.385132,585.303101 
	C1042.724121,586.727112 1042.090576,588.080505 1041.466431,589.438171 
	C1030.216187,613.914246 1002.550171,625.813293 977.041321,617.145996 
	C952.190918,608.702637 937.465881,582.436829 943.107239,556.616333 
	C947.775208,535.251343 966.532898,518.012024 987.241882,516.054260 
	C1011.941711,513.719299 1033.099365,525.731934 1041.975952,547.508850 
	C1043.409546,551.025940 1045.346069,551.683716 1048.689331,551.681885 
	C1181.516846,551.610657 1314.344482,551.610901 1447.171997,551.601929 
	C1448.959595,551.601807 1450.747070,551.601929 1452.730469,551.601929 
	C1452.841919,549.751404 1452.986938,548.451904 1452.988281,547.152222 
	C1453.003418,532.486267 1453.078979,517.819702 1452.978394,503.154388 
	C1452.761597,471.546722 1431.319214,450.180511 1399.789307,450.177216 
	C1227.630005,450.159149 1055.470703,450.168304 883.311340,450.168091 
	C880.687866,450.168091 878.064331,450.168091 875.223145,450.168091 
	C875.071289,451.594666 874.881226,452.549896 874.880676,453.505219 
	C874.856567,496.669769 874.897583,539.834473 874.746338,582.998535 
	C874.734436,586.394531 876.621643,587.077148 878.950378,588.127563 
	C902.384827,598.698792 914.563538,623.419250 908.666992,648.321777 
	C903.112549,671.779480 881.599365,688.273193 856.945557,687.975342 
	C833.191101,687.688477 811.602905,670.100403 807.050415,647.325317 
	C802.043152,622.275330 813.965393,598.174316 836.566101,588.390869 
	C840.072388,586.873047 841.103516,585.212463 841.090942,581.505676 
	C840.948853,539.507935 841.002808,497.509552 840.991089,455.511353 
	C840.990662,453.891296 840.856750,452.271301 840.763611,450.168121 
	C839.181458,450.168121 837.892395,450.168182 836.603271,450.168121 
	C765.273010,450.164978 693.942627,450.098511 622.612488,450.190796 
	C595.235962,450.226196 572.892822,472.886932 572.866211,500.393372 
	C572.818542,549.724548 572.848633,599.055847 572.863342,648.387085 
	C572.863770,649.816589 573.056519,651.246033 573.160645,652.690552 
	C606.645020,652.690552 639.712646,652.690552 672.959961,652.690552 
	C672.959961,640.733887 672.959961,629.107666 672.959961,617.456177 
	C671.969055,616.995300 671.078430,616.571899 670.180115,616.165466 
	C669.117554,615.684814 668.025696,615.263916 666.985474,614.739868 
	C647.584229,604.966431 637.407227,588.863525 637.421387,567.494446 
	C637.435364,546.474060 647.631104,530.391663 666.551758,520.960632 
	C692.605835,507.973907 723.812134,519.022217 736.650391,545.117371 
	C749.110168,570.443237 738.430237,601.618591 712.602661,614.451477 
	C709.081665,616.200989 708.279175,618.198853 708.313110,621.729126 
	C708.463440,637.393738 708.383850,653.060547 708.376465,668.726562 
	C708.370544,681.480835 702.890015,686.873779 690.037598,686.869568 
	C653.039368,686.857422 616.041138,686.863403 579.042908,686.862305 
	C577.117126,686.862244 575.191345,686.862305 573.176270,686.862305 
	C573.176270,777.868225 573.176270,868.107056 573.176270,958.857605 
	C581.778442,958.857605 590.089417,958.476685 598.347168,958.975952 
	C605.179260,959.389038 610.729553,958.720886 612.935120,951.008789 
	C613.371765,949.481873 614.668213,948.184937 615.631653,946.826965 
	C630.962036,925.218506 661.746033,919.563416 685.271973,934.024109 
	C707.769775,947.852905 716.379089,978.665649 703.929749,1001.582153 
	C693.003601,1021.694763 675.901794,1031.663330 653.064636,1029.877930 
	C631.268799,1028.173828 616.458984,1016.152771 608.457397,995.899048 
	C607.401184,993.225403 606.033752,992.350525 603.377136,992.376526 
	C594.711670,992.461487 586.044800,992.382751 577.378906,992.440247 
	C575.959290,992.449646 574.542114,992.828064 573.235229,993.019531 
	C573.235229,1016.356750 573.235229,1039.258911 573.235229,1062.212036 
	C719.319519,1062.212036 865.020203,1062.212036 1011.004700,1062.212036 
	C1011.004700,1050.320190 1010.886230,1038.830078 1011.081909,1027.345459 
	C1011.135681,1024.187500 1010.005310,1022.729309 1007.231384,1021.367554 
	C975.759827,1005.917419 968.048889,965.406250 991.540344,939.476990 
	C1005.852600,923.679504 1028.367676,918.154358 1048.213867,925.569397 
	C1068.002197,932.962708 1081.494629,951.663391 1082.088623,972.520386 
	C1082.714600,994.500977 1070.715332,1013.882446 1050.915161,1022.199585 
	C1047.247559,1023.740173 1046.004028,1025.514038 1046.065674,1029.497925 
	C1046.318237,1045.826660 1046.253418,1062.162231 1046.143066,1078.494019 
	C1046.060547,1090.695801 1039.950195,1096.406616 1027.686401,1096.100098 
	C1025.687866,1096.050171 1023.688660,1096.001709 1021.689819,1096.001587 
	C873.862793,1095.996094 726.035828,1095.995483 578.208801,1095.994629 
	C576.595581,1095.994629 574.982361,1095.994629 573.257935,1095.994629 
	C573.257935,1129.471069 573.257935,1162.335815 573.257935,1195.580444 
	C574.796387,1195.580444 575.931763,1195.580444 577.067200,1195.580444 
	C651.564026,1195.577759 726.061218,1195.467041 800.556946,1195.752808 
	C807.388611,1195.778931 810.839722,1194.081543 813.934265,1187.719238 
	C823.972717,1167.080200 848.692200,1156.155518 871.231750,1161.438599 
	C894.525635,1166.898682 911.559021,1187.673096 911.825073,1210.947876 
	C912.105103,1235.445923 895.640503,1257.425781 872.942139,1262.855713 
	C847.400635,1268.965698 823.073486,1257.408813 812.100647,1233.656372 
	C810.544006,1230.286865 808.892395,1229.053589 805.127502,1229.059570 
	C729.464233,1229.180176 653.800720,1229.148560 578.137268,1229.159912 
	C576.522095,1229.160156 574.906982,1229.302979 573.177979,1229.384644 
	C573.031616,1230.602661 572.851562,1231.404419 572.851196,1232.206299 
	C572.843079,1248.872192 572.597778,1265.544434 573.012024,1282.200317 
	C573.145691,1287.573364 574.312988,1293.174438 576.231689,1298.204102 
	C583.374451,1316.928833 601.257568,1330.733521 627.501526,1330.698120 
	C777.161560,1330.496582 926.822021,1330.600586 1076.482300,1330.600830 
	C1078.244629,1330.600830 1080.006958,1330.600830 1081.755371,1330.600830 
	C1081.755371,1284.467041 1081.755371,1239.083008 1081.755371,1193.375854 
	C1069.845825,1193.375854 1058.367554,1193.263794 1046.897949,1193.526611 
	C1045.558838,1193.557129 1043.609375,1195.401489 1043.051147,1196.836060 
	C1033.708374,1220.848022 1009.243774,1234.626953 984.081177,1229.865967 
	C959.461914,1225.207764 942.017944,1203.758545 942.016113,1178.142456 
	C942.014343,1153.706665 958.497925,1133.406616 983.046875,1127.611694 
	C1005.496155,1122.312500 1030.159546,1133.904541 1040.437500,1154.910278 
	C1041.855103,1157.807861 1043.524292,1158.191284 1046.204346,1158.181885 
	C1063.203247,1158.122314 1080.202637,1158.145264 1097.201660,1158.188721 
	C1110.625854,1158.223022 1115.995117,1163.632690 1115.993774,1176.987915 
	C1115.989014,1226.152466 1115.987915,1275.317017 1115.985352,1324.481567 
	C1115.985229,1326.282959 1115.985352,1328.084229 1115.985352,1329.947266 
	C1117.203369,1330.227539 1117.996704,1330.567993 1118.790527,1330.569458 
	C1138.956055,1330.606812 1159.121826,1330.578735 1179.287109,1330.651978 
	C1181.998901,1330.661743 1182.700684,1329.453491 1182.649048,1326.997559 
	C1182.540527,1321.833374 1182.616943,1316.665405 1182.617798,1310.499390 
M1621.716797,1537.243774 
	C1628.540771,1533.495361 1631.979614,1526.894043 1633.504150,1520.029541 
	C1636.870605,1504.870728 1637.583984,1489.385986 1635.109619,1473.951660 
	C1633.663940,1464.934204 1631.843018,1455.968262 1629.877563,1447.048096 
	C1629.316772,1444.502319 1627.660156,1442.197998 1626.505859,1439.782959 
	C1625.658325,1439.995361 1624.810913,1440.207764 1623.963379,1440.420288 
	C1624.222290,1443.434082 1623.917725,1446.644653 1624.883301,1449.411865 
	C1626.079712,1452.840332 1626.326904,1455.706787 1625.192383,1459.325073 
	C1622.385864,1468.276001 1616.986572,1475.382812 1610.007080,1481.070557 
	C1602.614380,1487.095093 1596.033081,1494.468506 1586.287598,1497.195557 
	C1579.303955,1499.149780 1575.882446,1497.359863 1576.011230,1490.004150 
	C1576.106567,1484.557617 1577.747192,1479.056274 1579.246460,1473.733521 
	C1582.242798,1463.094971 1588.310425,1454.474731 1597.462524,1448.160400 
	C1605.001465,1442.959351 1608.094238,1443.173340 1614.896118,1448.821289 
	C1615.644409,1449.442627 1617.162231,1449.137207 1618.323120,1449.261597 
	C1618.417358,1447.865723 1619.135132,1446.002563 1618.499268,1445.153687 
	C1615.553345,1441.221191 1611.611938,1437.103394 1606.616821,1438.479614 
	C1600.298218,1440.220825 1593.086060,1442.521729 1588.793213,1447.006470 
	C1580.341553,1455.835938 1574.341797,1466.669312 1573.224487,1479.421997 
	C1572.822998,1484.002930 1571.752563,1488.663086 1572.233032,1493.153809 
	C1573.137329,1501.603271 1580.863159,1506.245117 1588.481323,1502.805542 
	C1593.672241,1500.461792 1598.764526,1497.292969 1602.951172,1493.456665 
	C1611.941162,1485.219238 1620.317383,1476.311646 1629.216797,1467.406128 
	C1629.564087,1470.378662 1629.645020,1473.953369 1630.440308,1477.361328 
	C1633.270874,1489.490234 1633.371704,1501.599854 1630.858521,1513.767090 
	C1626.400513,1535.349854 1609.611450,1540.007690 1593.068359,1535.673950 
	C1591.408691,1535.239014 1589.889404,1532.938477 1589.013306,1531.155762 
	C1587.717773,1528.519653 1585.950073,1526.945557 1583.079834,1527.122559 
	C1581.764771,1527.203735 1579.340088,1528.343872 1579.390869,1528.580933 
	C1579.912598,1531.013428 1580.224243,1533.952271 1581.800537,1535.586304 
	C1584.025269,1537.892700 1587.059082,1539.974854 1590.115845,1540.821411 
	C1600.753052,1543.768066 1611.333374,1544.122437 1621.716797,1537.243774 
M1022.913818,1503.953003 
	C1024.231079,1501.585327 1025.548340,1499.217651 1026.862183,1496.856079 
	C1025.453003,1495.954590 1024.805054,1495.429199 1024.069580,1495.098267 
	C1023.196655,1494.705688 1022.108215,1494.673096 1021.368469,1494.134155 
	C1020.444153,1493.460815 1019.146057,1492.463135 1019.099182,1491.549438 
	C1018.436401,1478.637207 1017.246338,1465.744385 1019.773804,1452.831421 
	C1021.292847,1445.070435 1022.377930,1437.141357 1022.675293,1429.250854 
	C1022.913147,1422.939819 1021.779175,1416.558838 1020.976440,1410.244141 
	C1020.836670,1409.144165 1019.319275,1408.219360 1018.438110,1407.213623 
	C1017.923157,1407.343140 1017.408142,1407.472778 1016.893188,1407.602417 
	C1016.093201,1421.886353 1015.293213,1436.170288 1014.493225,1450.454224 
	C1013.970337,1450.566772 1013.447510,1450.679443 1012.924683,1450.791992 
	C1011.588501,1449.700439 1010.286682,1448.562988 1008.908813,1447.526855 
	C1006.149597,1445.452026 1003.592529,1442.904297 1000.520630,1441.486816 
	C990.377075,1436.806396 977.674133,1441.738281 973.643188,1452.182495 
	C968.576782,1465.309692 964.902954,1478.820679 964.867126,1493.097046 
	C964.853210,1498.651978 966.829163,1503.048218 971.496765,1505.982422 
	C975.472046,1508.481445 978.936768,1505.619141 981.908020,1503.826538 
	C991.972168,1497.755249 997.789612,1487.680542 1004.468689,1478.481934 
	C1007.234131,1474.673340 1009.682800,1470.634766 1012.572510,1466.250122 
	C1013.055176,1467.510254 1013.361023,1467.952026 1013.377075,1468.404053 
	C1013.600220,1474.704834 1013.441284,1481.041504 1014.071289,1487.299438 
	C1014.726868,1493.811035 1015.507996,1500.556396 1022.913818,1503.953003 
M822.070496,1455.221313 
	C826.071655,1453.620117 830.072815,1452.018921 835.613647,1449.801514 
	C835.862000,1484.575684 835.819214,1518.045776 835.532043,1551.938721 
	C837.176819,1550.976562 838.567200,1549.702393 838.749634,1548.273926 
	C839.352234,1543.553467 839.640076,1538.782227 839.828674,1534.021729 
	C840.311157,1521.841431 840.674988,1509.656494 841.089600,1497.375122 
	C847.977295,1497.889038 854.490906,1498.211060 860.966309,1498.894897 
	C871.959412,1500.055908 876.393555,1495.968018 877.218994,1484.689453 
	C878.262146,1470.434326 866.152832,1450.567139 850.435303,1445.971436 
	C845.788208,1444.612671 841.212219,1443.010620 835.988770,1441.321289 
	C835.757080,1441.588623 835.031372,1443.188599 833.862976,1443.638184 
	C829.469849,1445.329102 825.005493,1446.971802 820.425476,1447.995850 
	C816.926514,1448.778320 815.711243,1451.241455 816.039307,1453.827881 
	C816.421387,1456.840088 819.290833,1456.437500 822.070496,1455.221313 
M496.891083,1465.461548 
	C497.261780,1462.539429 497.982849,1459.610718 497.927094,1456.696777 
	C497.824310,1451.326050 502.603546,1446.130371 498.707916,1441.301880 
	C495.788086,1441.024780 493.047241,1441.171753 490.568604,1440.435791 
	C486.672852,1439.278809 483.014130,1437.344604 479.147095,1436.065796 
	C471.546906,1433.552612 465.196198,1434.513794 461.519653,1441.327759 
	C456.954346,1449.788818 454.041321,1459.260742 451.341705,1468.565063 
	C449.660278,1474.360107 449.685699,1480.651855 448.958374,1486.722168 
	C448.018707,1494.564087 448.216461,1501.952637 457.194275,1506.181519 
	C471.294708,1496.925903 480.025757,1482.397339 490.621887,1468.075195 
	C490.985413,1470.291992 491.146576,1470.773804 491.130188,1471.249512 
	C490.842407,1479.619385 490.158905,1488.000488 490.426392,1496.351562 
	C490.523010,1499.367798 492.592072,1502.530640 494.483765,1505.093018 
	C494.838989,1505.574219 498.622009,1503.524658 501.400360,1502.411743 
	C499.488037,1499.727417 498.341095,1498.032227 497.101501,1496.407715 
	C496.295349,1495.351440 494.537506,1494.343018 494.600586,1493.406982 
	C495.208160,1484.391602 496.112122,1475.396362 496.891083,1465.461548 
M1269.604858,1469.310181 
	C1270.344727,1463.644653 1271.118164,1457.983398 1271.813110,1452.312256 
	C1272.280518,1448.497192 1272.637207,1444.668579 1272.986572,1441.381348 
	C1269.090332,1441.055298 1266.496582,1441.255615 1264.175903,1440.553345 
	C1259.955811,1439.276489 1255.930542,1437.372070 1251.765381,1435.894897 
	C1245.130371,1433.542114 1239.137939,1435.111938 1235.135132,1440.653931 
	C1232.664185,1444.075073 1231.793701,1448.659790 1230.244629,1452.737305 
	C1228.283813,1457.898926 1225.766724,1462.942749 1224.576050,1468.279785 
	C1223.064941,1475.053833 1222.025146,1482.066895 1221.980225,1488.984741 
	C1221.952148,1493.285889 1220.164185,1498.491943 1224.682007,1502.057617 
	C1226.342896,1503.368286 1227.999390,1504.684570 1229.855103,1506.154541 
	C1231.496704,1505.290894 1233.720703,1504.783325 1234.904297,1503.391113 
	C1242.794312,1494.109863 1250.459351,1484.637329 1258.204102,1475.232544 
	C1259.877075,1473.200928 1261.577148,1471.191772 1263.567993,1468.809448 
	C1263.567993,1478.659546 1263.257446,1487.341064 1263.732056,1495.979492 
	C1263.904053,1499.110352 1265.615845,1502.367798 1267.424072,1505.023560 
	C1267.797729,1505.572388 1271.719360,1503.705322 1274.380371,1502.828247 
	C1273.569458,1501.277954 1273.050415,1500.727783 1273.017212,1500.149658 
	C1272.804810,1496.463867 1267.073242,1496.617065 1267.848633,1491.770508 
	C1268.985107,1484.665527 1269.074707,1477.393066 1269.604858,1469.310181 
M897.858826,1462.935059 
	C897.256042,1465.925049 896.645996,1468.913452 896.052124,1471.905273 
	C894.937927,1477.518188 893.144043,1483.108398 892.943359,1488.754761 
	C892.784302,1493.231323 891.142822,1498.567993 895.797119,1502.223389 
	C897.443726,1503.516724 899.135498,1504.752563 901.150146,1506.273926 
	C915.334900,1496.913940 924.134155,1482.462280 934.616028,1469.425049 
	C935.244751,1471.163696 935.080078,1472.429199 935.088379,1473.693604 
	C935.145752,1482.499023 935.078186,1491.311035 935.456787,1500.103394 
	C935.532288,1501.856934 937.316895,1504.924683 938.383606,1504.955566 
	C940.538391,1505.017944 942.741394,1503.411865 944.870300,1502.516724 
	C943.094116,1497.152222 937.095764,1495.169922 938.605103,1489.352295 
	C939.143188,1487.278320 938.704102,1484.971191 938.947388,1482.796875 
	C939.907593,1474.218018 941.319580,1465.671997 941.852112,1457.069580 
	C942.193481,1451.554688 946.841187,1446.065552 942.967773,1441.357910 
	C939.738770,1441.017456 937.200989,1441.117432 934.901978,1440.425049 
	C931.009033,1439.252319 927.220703,1437.687988 923.470276,1436.095337 
	C912.707581,1431.524658 903.104492,1440.555298 901.489868,1448.858643 
	C900.617126,1453.347046 899.096863,1457.709595 897.858826,1462.935059 
M786.679321,1460.170776 
	C790.536743,1456.629150 794.394165,1453.087646 798.251526,1449.546021 
	C798.970764,1449.814697 799.689941,1450.083374 800.409119,1450.351929 
	C800.708984,1458.993774 801.354126,1467.641113 801.215210,1476.275757 
	C801.065002,1485.613403 800.355652,1494.938354 802.471985,1504.149292 
	C803.025696,1506.559204 804.281189,1509.142334 807.095459,1507.635132 
	C808.263489,1507.009644 808.663696,1503.845093 808.429016,1501.957520 
	C808.050171,1498.910645 806.193359,1495.980103 806.124512,1492.973877 
	C805.846802,1480.839478 806.312439,1468.683228 805.838257,1456.561035 
	C805.693909,1452.871948 803.733276,1449.105469 802.008728,1445.673828 
	C800.626892,1442.924072 797.908386,1442.237427 795.376526,1444.461914 
	C791.278870,1448.062378 786.898193,1451.493042 783.491882,1455.689209 
	C779.270813,1460.889160 775.665039,1466.646240 772.265015,1472.439453 
	C768.605957,1478.674438 765.492859,1485.230103 762.141479,1491.645752 
	C761.624878,1485.216797 761.695251,1479.090942 762.480347,1473.057983 
	C764.594543,1456.810547 764.977478,1440.526367 763.181152,1424.284058 
	C762.717041,1420.087280 759.886963,1416.152100 758.143677,1412.096802 
	C757.465210,1412.244507 756.786743,1412.392212 756.108276,1412.539917 
	C755.894104,1414.093262 755.138733,1415.808716 755.548340,1417.174927 
	C760.338745,1433.150513 760.585999,1449.299438 758.636230,1465.759399 
	C757.353699,1476.586060 757.203430,1487.561768 756.921143,1498.480469 
	C756.853943,1501.079224 758.286865,1503.716553 759.029846,1506.336182 
	C759.757202,1506.382568 760.484558,1506.428833 761.211914,1506.475220 
	C764.705322,1499.922729 768.157715,1493.347900 771.702087,1486.823120 
	C776.461304,1478.062256 781.291626,1469.339844 786.679321,1460.170776 
M630.916870,1470.088745 
	C625.019897,1478.004883 619.122986,1485.921143 613.226074,1493.837280 
	C612.628784,1493.557373 612.031494,1493.277466 611.434265,1492.997681 
	C611.980713,1486.234375 612.835571,1479.478149 612.991760,1472.705933 
	C613.168701,1465.038452 612.855774,1457.348511 612.393860,1449.690186 
	C612.324951,1448.547119 610.277039,1447.523315 608.856506,1446.169800 
	C608.148438,1447.751099 607.903625,1448.049561 607.893860,1448.355591 
	C607.362732,1465.055664 606.703918,1481.754883 606.518738,1498.459106 
	C606.494873,1500.619507 608.930420,1502.806885 610.226685,1504.981812 
	C611.889648,1503.652100 613.684875,1502.454224 615.178162,1500.955566 
	C616.674316,1499.453735 617.924866,1497.692749 619.186218,1495.974243 
	C623.835388,1489.640259 629.220459,1483.688965 632.868408,1476.818359 
	C637.237122,1468.590088 641.984985,1460.857178 648.670837,1453.820679 
	C649.422607,1455.548950 650.303955,1456.831055 650.532959,1458.220825 
	C652.191467,1468.286743 653.797119,1478.362793 655.254150,1488.459595 
	C656.001770,1493.640137 657.720947,1498.501465 662.686523,1500.530396 
	C667.361694,1502.440552 671.930054,1500.199585 675.259216,1496.760498 
	C678.870361,1493.030151 682.062866,1488.844727 685.040771,1484.580322 
	C685.985291,1483.227783 685.655762,1480.985596 685.909302,1479.150513 
	C684.234375,1480.226562 682.321228,1481.060303 680.931946,1482.426636 
	C677.567566,1485.735962 674.719421,1489.609253 671.162598,1492.674194 
	C666.256836,1496.901611 663.096741,1496.016602 661.678162,1489.810791 
	C659.436157,1480.003052 657.779236,1470.056763 656.049561,1460.138672 
	C655.107178,1454.735474 655.014709,1449.066040 649.870850,1445.235107 
	C640.700439,1451.105225 635.063538,1459.549072 630.916870,1470.088745 
M1357.940796,1467.783447 
	C1357.695312,1461.901611 1357.596558,1456.006714 1357.078125,1450.148926 
	C1356.976562,1449.000977 1355.250488,1447.996582 1354.273560,1446.926025 
	C1353.638306,1448.212402 1352.492676,1449.482910 1352.452637,1450.787598 
	C1352.229858,1458.022827 1352.327271,1465.267090 1352.215942,1472.506592 
	C1352.090332,1480.671143 1351.589844,1488.841797 1351.826660,1496.993164 
	C1351.904785,1499.680298 1353.769775,1502.315430 1354.817749,1504.974365 
	C1356.583496,1503.520142 1358.416992,1502.138184 1360.082520,1500.577026 
	C1360.775635,1499.927124 1360.954224,1498.739014 1361.631470,1498.059570 
	C1370.885742,1488.776855 1376.998291,1477.397827 1383.426025,1466.168457 
	C1385.989990,1461.688965 1389.811157,1457.929199 1393.060059,1453.841797 
	C1396.174805,1465.669556 1398.088135,1477.027832 1399.869019,1488.406738 
	C1400.671631,1493.535156 1402.367065,1498.490723 1407.257446,1500.527832 
	C1411.840576,1502.437012 1416.495850,1500.330688 1419.792358,1496.800415 
	C1423.568481,1492.756348 1426.927490,1488.292725 1430.152954,1483.786255 
	C1430.931519,1482.698364 1430.471680,1480.723999 1430.581421,1479.157471 
	C1429.094727,1479.935303 1427.298584,1480.408813 1426.178711,1481.547363 
	C1422.638550,1485.147461 1419.631714,1489.307739 1415.895752,1492.670776 
	C1411.185059,1496.911377 1407.694702,1495.919556 1406.303955,1489.820923 
	C1404.142334,1480.341187 1402.593262,1470.719849 1400.871826,1461.142700 
	C1399.845825,1455.435303 1400.040771,1449.278564 1394.623657,1445.333618 
	C1386.425903,1449.832642 1381.887207,1457.509155 1377.193359,1465.027466 
	C1372.984619,1471.769165 1369.019409,1478.668701 1364.637451,1485.294189 
	C1362.599609,1488.375122 1359.829224,1490.971558 1357.390869,1493.787598 
	C1356.954956,1493.563843 1356.519165,1493.340088 1356.083252,1493.116455 
	C1356.723999,1484.987793 1357.364746,1476.859131 1357.940796,1467.783447 
M1530.993530,1467.718628 
	C1532.172974,1475.151611 1533.251587,1482.602295 1534.556641,1490.013184 
	C1536.325439,1500.058472 1543.373047,1503.744385 1551.839722,1498.837646 
	C1558.453491,1495.004761 1562.123413,1488.425537 1565.869263,1482.067017 
	C1566.268677,1481.389160 1565.797241,1480.198120 1565.615601,1477.631714 
	C1563.148804,1479.726074 1561.458130,1480.938599 1560.038330,1482.411987 
	C1556.750122,1485.824463 1553.867920,1489.678711 1550.314941,1492.772583 
	C1545.623535,1496.858032 1542.376465,1496.015503 1541.005737,1490.182983 
	C1538.706543,1480.400391 1536.915161,1470.487671 1535.230347,1460.575317 
	C1534.259521,1454.864258 1534.310669,1448.877441 1528.073486,1444.686401 
	C1523.725708,1449.526855 1519.073730,1454.013550 1515.299072,1459.145508 
	C1512.672852,1462.716431 1511.685791,1467.464600 1509.200195,1471.173584 
	C1504.242798,1478.570557 1498.781982,1485.631958 1493.439209,1492.764771 
	C1493.078979,1493.245728 1491.966431,1493.163086 1490.694824,1493.462402 
	C1491.049072,1488.329224 1491.419434,1483.587891 1491.694092,1478.840942 
	C1492.140869,1471.120483 1493.091919,1463.362183 1492.632568,1455.691650 
	C1492.468872,1452.957275 1494.023438,1447.102783 1486.947021,1446.906738 
	C1486.947021,1452.524780 1487.031128,1457.777954 1486.929810,1463.027710 
	C1486.712891,1474.274658 1486.204224,1485.520874 1486.268066,1496.764771 
	C1486.283569,1499.484985 1488.060425,1502.194946 1489.027222,1504.909546 
	C1490.933350,1503.421265 1492.921021,1502.023193 1494.709351,1500.404907 
	C1495.537354,1499.655518 1495.821411,1498.323730 1496.616699,1497.516968 
	C1505.098633,1488.913696 1510.761719,1478.407104 1516.861206,1468.153931 
	C1519.845581,1463.137451 1523.680542,1458.626831 1527.130493,1453.887207 
	C1527.633423,1454.034180 1528.136353,1454.181030 1528.639160,1454.328003 
	C1529.386719,1458.503052 1530.134399,1462.678101 1530.993530,1467.718628 
M564.219421,1474.492432 
	C564.556213,1474.124390 564.880127,1473.742676 565.242432,1473.401855 
	C565.302490,1473.345459 565.530273,1473.467407 566.001282,1473.591309 
	C566.001282,1477.525269 565.715088,1481.579346 566.066345,1485.577515 
	C566.636353,1492.064575 568.201965,1498.257812 573.845337,1502.466309 
	C579.681152,1506.818115 590.705200,1503.119873 591.993408,1495.614746 
	C589.862854,1496.169312 587.683044,1496.147095 586.326538,1497.192749 
	C580.753418,1501.489624 571.702759,1495.647827 571.299194,1489.607788 
	C570.916626,1483.881958 570.839111,1477.952271 571.920593,1472.362427 
	C573.049622,1466.526733 575.686584,1460.976807 577.733337,1455.326904 
	C578.975281,1451.898804 580.363525,1448.516602 576.425537,1444.769043 
	C575.312622,1446.451050 574.047729,1447.705078 573.556580,1449.211426 
	C570.295105,1459.213745 565.043213,1467.786865 557.085938,1474.856445 
	C548.992249,1482.047485 541.347229,1489.743530 533.068420,1497.635254 
	C531.392822,1495.373169 529.594116,1494.040527 529.433655,1492.533569 
	C528.825439,1486.821655 528.379822,1481.042114 528.555664,1475.308594 
	C528.838623,1466.081787 529.774170,1456.875366 530.096252,1447.648560 
	C530.130737,1446.660156 527.922729,1445.593506 526.754944,1444.563232 
	C525.878540,1445.666504 524.279053,1446.742554 524.236633,1447.877075 
	C523.770325,1460.345825 523.846008,1472.840942 523.123291,1485.291138 
	C522.791016,1491.014648 524.101990,1496.097412 527.131653,1500.514038 
	C528.258606,1502.156982 532.228394,1503.415039 534.038757,1502.690918 
	C537.567383,1501.279175 540.838867,1498.700684 543.590271,1495.973267 
	C550.458740,1489.164551 556.976318,1482.001831 564.219421,1474.492432 
M1175.094482,1458.225342 
	C1172.497681,1457.492920 1171.073975,1458.115234 1171.443481,1461.168091 
	C1171.638794,1462.781494 1171.742920,1464.451050 1171.558960,1466.057617 
	C1170.644775,1474.040039 1169.010132,1481.992188 1168.775269,1489.988647 
	C1168.401123,1502.719360 1176.294067,1514.059570 1191.411377,1508.987061 
	C1195.152954,1507.731567 1198.836304,1505.630493 1201.862061,1503.099854 
	C1204.998901,1500.476196 1207.452393,1496.963867 1209.848999,1493.587769 
	C1210.326050,1492.915894 1209.194336,1491.102051 1208.819214,1489.863281 
	C1200.921143,1496.317383 1194.898926,1504.164917 1183.885620,1503.135376 
	C1176.709106,1502.464722 1172.447998,1497.689087 1173.122681,1490.459717 
	C1173.258301,1489.005981 1173.318726,1487.535889 1173.589111,1486.106323 
	C1174.160400,1483.085205 1175.139160,1480.112915 1175.422485,1477.071411 
	C1175.917114,1471.764282 1179.647339,1473.977905 1182.550903,1473.322876 
	C1193.341675,1470.888306 1201.530396,1464.875366 1204.922119,1453.933472 
	C1205.844971,1450.956421 1205.874023,1447.291992 1205.072754,1444.272217 
	C1203.101196,1436.842529 1195.464478,1434.621338 1189.267334,1439.097778 
	C1182.657593,1443.872192 1179.422607,1450.981079 1175.094482,1458.225342 
M373.209930,1499.387939 
	C374.448242,1500.141602 375.604034,1501.116577 376.937897,1501.614014 
	C387.842987,1505.680664 398.747894,1503.087402 409.535583,1501.143921 
	C418.569702,1499.516235 427.470306,1497.132446 436.406281,1494.984741 
	C439.070160,1494.344482 441.654144,1493.371948 444.274719,1492.551636 
	C444.076172,1491.836914 443.877625,1491.122070 443.679047,1490.407227 
	C441.014282,1490.980591 438.371704,1491.704712 435.680878,1492.100952 
	C424.577179,1493.736572 413.481506,1495.467041 402.336731,1496.766724 
	C396.445007,1497.453857 390.432709,1497.772095 384.522522,1497.431152 
	C379.539825,1497.143921 375.819305,1494.508545 373.816193,1489.329590 
	C370.270447,1480.162109 371.968079,1470.991699 373.251678,1461.887451 
	C374.741211,1451.322388 377.070435,1440.877686 378.720825,1430.331543 
	C378.934479,1428.966187 377.271332,1427.307007 376.477600,1425.783936 
	C374.971832,1426.764160 372.665833,1427.430786 372.132446,1428.792114 
	C371.126038,1431.360718 371.193878,1434.338379 370.717407,1437.129272 
	C370.003204,1441.312866 368.941193,1445.454102 368.495209,1449.662964 
	C367.474548,1459.295532 366.834961,1468.968140 365.854431,1478.605469 
	C365.055786,1486.455322 367.156342,1493.213379 373.209930,1499.387939 
M1129.121094,1501.994629 
	C1141.183594,1498.838745 1153.246094,1495.682861 1165.308594,1492.526978 
	C1165.156616,1491.852661 1165.004761,1491.178467 1164.852783,1490.504150 
	C1162.431641,1491.042847 1160.034424,1491.753784 1157.585571,1492.091797 
	C1143.196533,1494.078979 1128.820312,1496.209351 1114.382935,1497.762817 
	C1110.255859,1498.206787 1105.678711,1497.626343 1101.765137,1496.232300 
	C1093.767334,1493.383789 1092.641113,1485.711792 1093.180420,1478.949951 
	C1094.280029,1465.164185 1096.736694,1451.487427 1098.599731,1437.761230 
	C1098.880737,1435.691528 1099.249268,1433.574219 1099.078857,1431.520264 
	C1098.918213,1429.584106 1098.099731,1427.702515 1097.570557,1425.796997 
	C1096.079834,1426.937378 1093.891235,1427.784912 1093.261353,1429.286377 
	C1092.311890,1431.549561 1092.543945,1434.285645 1092.106934,1436.791748 
	C1091.409058,1440.793579 1090.378540,1444.745361 1089.838501,1448.765259 
	C1088.787476,1456.588867 1087.849609,1464.432861 1087.109009,1472.291504 
	C1086.475952,1479.009277 1086.059814,1485.810913 1089.066040,1492.153809 
	C1091.225708,1496.710327 1093.961304,1501.293945 1099.401001,1501.982056 
	C1105.833984,1502.795776 1112.390869,1502.745483 1118.896851,1502.815186 
	C1122.013306,1502.848755 1125.135986,1502.296021 1129.121094,1501.994629 
M737.154297,1488.733154 
	C741.645447,1482.209473 742.352417,1479.537109 740.364746,1476.303833 
	C734.481384,1488.827515 724.343689,1495.679321 711.092834,1498.260254 
	C703.122009,1499.812866 697.102173,1494.813232 697.481812,1486.750488 
	C698.042358,1474.846924 701.298401,1463.740112 707.821472,1453.617432 
	C710.117676,1450.054199 713.624023,1448.006104 716.979431,1449.368286 
	C719.334900,1450.324707 720.677002,1454.245850 722.033386,1457.054688 
	C723.246338,1459.566528 723.859314,1462.368042 724.737000,1465.041748 
	C725.466064,1465.072876 726.195068,1465.103882 726.924133,1465.135010 
	C727.569580,1463.479858 728.895020,1461.759033 728.742798,1460.180786 
	C728.080750,1453.316162 728.556702,1446.371216 719.494568,1443.112061 
	C713.075500,1440.803589 708.130310,1440.629761 705.174438,1447.084961 
	C701.419556,1455.285278 697.640137,1463.540283 694.826416,1472.086182 
	C692.166199,1480.166016 691.803162,1488.640625 695.626648,1496.692871 
	C697.782349,1501.232910 700.802673,1505.247192 706.350952,1505.200562 
	C719.100098,1505.093262 729.726929,1500.520874 737.154297,1488.733154 
M1026.133911,959.087524 
	C1024.903687,959.576904 1023.608459,959.946838 1022.454163,960.575623 
	C1016.390137,963.878723 1012.978149,970.923523 1014.245850,977.365784 
	C1015.616516,984.331543 1021.237305,989.541504 1028.247192,990.343689 
	C1035.129517,991.131287 1041.432251,987.511597 1044.487915,981.197388 
	C1049.531372,970.775574 1041.320068,956.597778 1026.133911,959.087524 
M1004.825989,1190.368286 
	C1010.264709,1184.291870 1011.486816,1177.859741 1008.385742,1171.633545 
	C1005.243164,1165.323975 999.108154,1162.077759 991.880310,1162.900024 
	C985.429993,1163.633911 980.438232,1168.118408 978.638306,1174.796387 
	C976.997681,1180.883301 979.503418,1187.718384 984.787292,1191.569092 
	C990.600647,1195.805664 997.153076,1195.565552 1004.825989,1190.368286 
M857.569214,619.954834 
	C843.970032,620.616211 839.359863,634.420654 843.370605,642.444702 
	C847.006836,649.719238 854.396362,653.243225 862.089661,651.218140 
	C869.136902,649.363159 874.358032,642.332642 873.952759,635.244019 
	C873.470154,626.802612 867.616760,621.042725 857.569214,619.954834 
M1348.563721,1021.011719 
	C1353.424316,1014.807068 1354.055664,1008.875610 1350.524292,1002.594360 
	C1347.478882,997.178040 1340.941162,993.811035 1335.101562,994.651978 
	C1327.899780,995.689026 1322.153564,1000.958740 1321.052734,1007.535706 
	C1319.897461,1014.438354 1322.978271,1021.077393 1328.920288,1024.490112 
	C1335.087402,1028.031982 1342.030396,1026.948364 1348.563721,1021.011719 
M1006.465576,577.855164 
	C1007.156982,576.725586 1007.973083,575.653015 1008.519470,574.457214 
	C1011.979370,566.884583 1009.393250,558.638000 1002.206055,554.137390 
	C995.724243,550.078613 987.144653,551.497681 981.973267,557.484009 
	C976.489136,563.832275 976.881165,573.174072 982.880615,579.103638 
	C989.503296,585.649170 998.333313,585.376221 1006.465576,577.855164 
M674.402954,572.899414 
	C678.861694,582.604797 688.418640,586.456543 696.866150,581.952820 
	C704.947021,577.644592 707.851440,567.371338 703.184692,559.603455 
	C699.242615,553.041931 691.346619,550.232788 684.116089,552.819763 
	C676.226746,555.642456 672.613586,562.669800 674.402954,572.899414 
M1198.638184,722.900146 
	C1191.207642,723.592407 1186.314575,727.533936 1184.120728,734.612427 
	C1182.251953,740.641785 1184.470337,747.289795 1189.458008,751.127014 
	C1195.000488,755.391113 1200.933838,756.018677 1207.170532,752.713806 
	C1213.180054,749.529358 1216.344482,742.423889 1214.974854,735.289795 
	C1213.642334,728.350159 1207.722778,723.598816 1198.638184,722.900146 
M646.783630,966.209839 
	C639.275208,974.353210 639.614929,984.207642 647.626587,990.661499 
	C654.814026,996.451416 665.376282,994.630920 670.761536,986.673889 
	C674.694336,980.863098 673.910461,972.395874 668.973328,967.358093 
	C662.742920,961.000549 655.310608,960.438965 646.783630,966.209839 
M845.085815,1205.978027 
	C842.437195,1213.539673 844.211182,1220.734375 849.754761,1224.913086 
	C855.228516,1229.039185 863.060791,1229.329346 868.426575,1225.604736 
	C874.039795,1221.708374 876.601868,1215.474121 875.203064,1209.115234 
	C873.723511,1202.389282 869.005981,1197.789551 862.428894,1196.753174 
	C854.750610,1195.543213 849.177551,1198.610352 845.085815,1205.978027 
M1214.857056,970.238953 
	C1213.932617,968.484253 1213.193604,966.596985 1212.050293,964.998901 
	C1208.029785,959.379517 1200.094604,957.091736 1193.778198,959.574280 
	C1187.411865,962.076477 1183.000000,969.032959 1183.516235,975.755371 
	C1184.057861,982.806213 1189.197021,988.656738 1196.067383,990.043274 
	C1207.645142,992.379700 1215.656372,984.338379 1214.857056,970.238953 
M1298.702637,1481.375488 
	C1298.702637,1489.835205 1298.702637,1498.294800 1298.702637,1506.613281 
	C1305.785400,1507.605225 1306.322266,1506.859253 1304.738281,1500.938965 
	C1304.211060,1498.968018 1304.341553,1496.680664 1304.709229,1494.634644 
	C1306.470215,1484.835449 1310.170898,1475.835205 1315.968872,1467.672852 
	C1322.466797,1458.524902 1330.805542,1452.028320 1341.697998,1449.005127 
	C1342.802856,1448.698486 1343.957886,1448.571655 1345.089722,1448.361328 
	C1344.445923,1447.472168 1343.802246,1446.583130 1343.158447,1445.693970 
	C1340.625244,1445.887695 1337.804077,1445.422485 1335.605591,1446.382690 
	C1321.651611,1452.476685 1311.756958,1463.008301 1304.333008,1476.391968 
	C1303.438843,1473.880005 1303.047607,1471.669800 1302.931763,1469.445190 
	C1302.569946,1462.494263 1302.457520,1455.526611 1301.923340,1448.590576 
	C1301.767578,1446.566895 1301.731689,1443.446899 1298.199097,1444.015381 
	C1295.455933,1444.456909 1295.538208,1446.255615 1295.829346,1448.801514 
	C1297.038086,1459.372681 1297.809570,1469.993896 1298.702637,1481.375488 
M1440.981567,1468.616821 
	C1440.952515,1471.096313 1440.993408,1473.579102 1440.881592,1476.054810 
	C1440.569092,1482.979248 1439.736450,1489.916870 1439.976807,1496.819092 
	C1440.197754,1503.166504 1444.847046,1506.175537 1450.274292,1503.347412 
	C1456.446289,1500.131226 1462.203003,1495.995972 1467.741821,1491.741821 
	C1470.215576,1489.841919 1471.717041,1486.676392 1473.659912,1484.085205 
	C1473.324707,1483.670410 1472.989624,1483.255615 1472.654419,1482.840820 
	C1471.432861,1483.176880 1470.005981,1483.217163 1469.024414,1483.898804 
	C1463.948730,1487.423462 1459.131470,1491.341431 1453.913818,1494.629517 
	C1451.868408,1495.918457 1447.978027,1497.193359 1446.775024,1496.211426 
	C1445.040405,1494.795532 1444.118042,1491.230347 1444.366211,1488.732910 
	C1445.641479,1475.899658 1447.463623,1463.121826 1448.938354,1450.306519 
	C1449.215454,1447.899292 1448.781616,1445.410278 1448.666748,1442.747314 
	C1445.630249,1443.542480 1443.850098,1444.008667 1442.995483,1444.232422 
	C1442.294678,1452.444580 1441.644775,1460.060913 1440.981567,1468.616821 
M1442.508545,1427.019775 
	C1446.421509,1423.673218 1450.197021,1420.146851 1454.280762,1417.023560 
	C1459.883179,1412.739014 1460.054321,1409.913452 1454.949707,1407.387939 
	C1451.377808,1411.065796 1447.711426,1414.448242 1444.526855,1418.235962 
	C1441.629761,1421.682129 1439.256226,1425.568359 1436.651855,1429.260620 
	C1437.071045,1429.581909 1437.490112,1429.903198 1437.909302,1430.224487 
	C1439.221313,1429.257690 1440.533447,1428.290771 1442.508545,1427.019775 
z"/>
<path fill="#FF7F27" opacity="1.000000" stroke="none" 
	d="
M1182.617676,1310.999146 
	C1182.616943,1316.665405 1182.540527,1321.833374 1182.649048,1326.997559 
	C1182.700684,1329.453491 1181.998901,1330.661743 1179.287109,1330.651978 
	C1159.121826,1330.578735 1138.956055,1330.606812 1118.790527,1330.569458 
	C1117.996704,1330.567993 1117.203369,1330.227539 1115.985352,1329.947266 
	C1115.985352,1328.084229 1115.985229,1326.282959 1115.985352,1324.481567 
	C1115.987915,1275.317017 1115.989014,1226.152466 1115.993774,1176.987915 
	C1115.995117,1163.632690 1110.625854,1158.223022 1097.201660,1158.188721 
	C1080.202637,1158.145264 1063.203247,1158.122314 1046.204346,1158.181885 
	C1043.524292,1158.191284 1041.855103,1157.807861 1040.437500,1154.910278 
	C1030.159546,1133.904541 1005.496155,1122.312500 983.046875,1127.611694 
	C958.497925,1133.406616 942.014343,1153.706665 942.016113,1178.142456 
	C942.017944,1203.758545 959.461914,1225.207764 984.081177,1229.865967 
	C1009.243774,1234.626953 1033.708374,1220.848022 1043.051147,1196.836060 
	C1043.609375,1195.401489 1045.558838,1193.557129 1046.897949,1193.526611 
	C1058.367554,1193.263794 1069.845825,1193.375854 1081.755371,1193.375854 
	C1081.755371,1239.083008 1081.755371,1284.467041 1081.755371,1330.600830 
	C1080.006958,1330.600830 1078.244629,1330.600830 1076.482300,1330.600830 
	C926.822021,1330.600586 777.161560,1330.496582 627.501526,1330.698120 
	C601.257568,1330.733521 583.374451,1316.928833 576.231689,1298.204102 
	C574.312988,1293.174438 573.145691,1287.573364 573.012024,1282.200317 
	C572.597778,1265.544434 572.843079,1248.872192 572.851196,1232.206299 
	C572.851562,1231.404419 573.031616,1230.602661 573.177979,1229.384644 
	C574.906982,1229.302979 576.522095,1229.160156 578.137268,1229.159912 
	C653.800720,1229.148560 729.464233,1229.180176 805.127502,1229.059570 
	C808.892395,1229.053589 810.544006,1230.286865 812.100647,1233.656372 
	C823.073486,1257.408813 847.400635,1268.965698 872.942139,1262.855713 
	C895.640503,1257.425781 912.105103,1235.445923 911.825073,1210.947876 
	C911.559021,1187.673096 894.525635,1166.898682 871.231750,1161.438599 
	C848.692200,1156.155518 823.972717,1167.080200 813.934265,1187.719238 
	C810.839722,1194.081543 807.388611,1195.778931 800.556946,1195.752808 
	C726.061218,1195.467041 651.564026,1195.577759 577.067200,1195.580444 
	C575.931763,1195.580444 574.796387,1195.580444 573.257935,1195.580444 
	C573.257935,1162.335815 573.257935,1129.471069 573.257935,1095.994629 
	C574.982361,1095.994629 576.595581,1095.994629 578.208801,1095.994629 
	C726.035828,1095.995483 873.862793,1095.996094 1021.689819,1096.001587 
	C1023.688660,1096.001709 1025.687866,1096.050171 1027.686401,1096.100098 
	C1039.950195,1096.406616 1046.060547,1090.695801 1046.143066,1078.494019 
	C1046.253418,1062.162231 1046.318237,1045.826660 1046.065674,1029.497925 
	C1046.004028,1025.514038 1047.247559,1023.740173 1050.915161,1022.199585 
	C1070.715332,1013.882446 1082.714600,994.500977 1082.088623,972.520386 
	C1081.494629,951.663391 1068.002197,932.962708 1048.213867,925.569397 
	C1028.367676,918.154358 1005.852600,923.679504 991.540344,939.476990 
	C968.048889,965.406250 975.759827,1005.917419 1007.231384,1021.367554 
	C1010.005310,1022.729309 1011.135681,1024.187500 1011.081909,1027.345459 
	C1010.886230,1038.830078 1011.004700,1050.320190 1011.004700,1062.212036 
	C865.020203,1062.212036 719.319519,1062.212036 573.235229,1062.212036 
	C573.235229,1039.258911 573.235229,1016.356750 573.235229,993.019531 
	C574.542114,992.828064 575.959290,992.449646 577.378906,992.440247 
	C586.044800,992.382751 594.711670,992.461487 603.377136,992.376526 
	C606.033752,992.350525 607.401184,993.225403 608.457397,995.899048 
	C616.458984,1016.152771 631.268799,1028.173828 653.064636,1029.877930 
	C675.901794,1031.663330 693.003601,1021.694763 703.929749,1001.582153 
	C716.379089,978.665649 707.769775,947.852905 685.271973,934.024109 
	C661.746033,919.563416 630.962036,925.218506 615.631653,946.826965 
	C614.668213,948.184937 613.371765,949.481873 612.935120,951.008789 
	C610.729553,958.720886 605.179260,959.389038 598.347168,958.975952 
	C590.089417,958.476685 581.778442,958.857605 573.176270,958.857605 
	C573.176270,868.107056 573.176270,777.868225 573.176270,686.862305 
	C575.191345,686.862305 577.117126,686.862244 579.042908,686.862305 
	C616.041138,686.863403 653.039368,686.857422 690.037598,686.869568 
	C702.890015,686.873779 708.370544,681.480835 708.376465,668.726562 
	C708.383850,653.060547 708.463440,637.393738 708.313110,621.729126 
	C708.279175,618.198853 709.081665,616.200989 712.602661,614.451477 
	C738.430237,601.618591 749.110168,570.443237 736.650391,545.117371 
	C723.812134,519.022217 692.605835,507.973907 666.551758,520.960632 
	C647.631104,530.391663 637.435364,546.474060 637.421387,567.494446 
	C637.407227,588.863525 647.584229,604.966431 666.985474,614.739868 
	C668.025696,615.263916 669.117554,615.684814 670.180115,616.165466 
	C671.078430,616.571899 671.969055,616.995300 672.959961,617.456177 
	C672.959961,629.107666 672.959961,640.733887 672.959961,652.690552 
	C639.712646,652.690552 606.645020,652.690552 573.160645,652.690552 
	C573.056519,651.246033 572.863770,649.816589 572.863342,648.387085 
	C572.848633,599.055847 572.818542,549.724548 572.866211,500.393372 
	C572.892822,472.886932 595.235962,450.226196 622.612488,450.190796 
	C693.942627,450.098511 765.273010,450.164978 836.603271,450.168121 
	C837.892395,450.168182 839.181458,450.168121 840.763611,450.168121 
	C840.856750,452.271301 840.990662,453.891296 840.991089,455.511353 
	C841.002808,497.509552 840.948853,539.507935 841.090942,581.505676 
	C841.103516,585.212463 840.072388,586.873047 836.566101,588.390869 
	C813.965393,598.174316 802.043152,622.275330 807.050415,647.325317 
	C811.602905,670.100403 833.191101,687.688477 856.945557,687.975342 
	C881.599365,688.273193 903.112549,671.779480 908.666992,648.321777 
	C914.563538,623.419250 902.384827,598.698792 878.950378,588.127563 
	C876.621643,587.077148 874.734436,586.394531 874.746338,582.998535 
	C874.897583,539.834473 874.856567,496.669769 874.880676,453.505219 
	C874.881226,452.549896 875.071289,451.594666 875.223145,450.168091 
	C878.064331,450.168091 880.687866,450.168091 883.311340,450.168091 
	C1055.470703,450.168304 1227.630005,450.159149 1399.789307,450.177216 
	C1431.319214,450.180511 1452.761597,471.546722 1452.978394,503.154388 
	C1453.078979,517.819702 1453.003418,532.486267 1452.988281,547.152222 
	C1452.986938,548.451904 1452.841919,549.751404 1452.730469,551.601929 
	C1450.747070,551.601929 1448.959595,551.601807 1447.171997,551.601929 
	C1314.344482,551.610901 1181.516846,551.610657 1048.689331,551.681885 
	C1045.346069,551.683716 1043.409546,551.025940 1041.975952,547.508850 
	C1033.099365,525.731934 1011.941711,513.719299 987.241882,516.054260 
	C966.532898,518.012024 947.775208,535.251343 943.107239,556.616333 
	C937.465881,582.436829 952.190918,608.702637 977.041321,617.145996 
	C1002.550171,625.813293 1030.216187,613.914246 1041.466431,589.438171 
	C1042.090576,588.080505 1042.724121,586.727112 1043.385132,585.303101 
	C1179.755615,585.303101 1316.039551,585.303101 1452.668945,585.303101 
	C1452.668945,596.696533 1452.668945,607.928284 1452.668945,619.828979 
	C1450.665405,619.828979 1448.729370,619.828735 1446.793213,619.828979 
	C1364.130127,619.841064 1281.467041,619.840759 1198.803955,619.878906 
	C1186.643433,619.884521 1181.046631,625.491943 1181.012329,637.591736 
	C1180.967041,653.590820 1180.935669,669.590942 1181.076904,685.588989 
	C1181.104004,688.663574 1180.195435,690.161743 1177.279541,691.549316 
	C1158.008423,700.719055 1145.970947,720.828308 1147.260864,741.094116 
	C1148.681519,763.414368 1162.459473,781.457764 1183.447021,788.483032 
	C1202.986084,795.023376 1225.377441,788.633972 1239.138184,772.591492 
	C1261.603882,746.400635 1252.592896,705.564026 1221.040527,691.476685 
	C1217.178833,689.752441 1215.907959,687.787048 1216.065308,683.720215 
	C1216.374512,675.732483 1216.463135,667.708374 1216.044922,659.730591 
	C1215.783936,654.752502 1217.075684,653.237671 1222.313721,653.269104 
	C1262.144043,653.508850 1301.976196,653.400635 1341.807861,653.400269 
	C1376.973022,653.399963 1412.138184,653.399109 1447.303345,653.398499 
	C1448.949951,653.398438 1450.596680,653.398499 1452.717773,653.398499 
	C1452.827515,655.276917 1453.001099,656.863647 1453.001221,658.450317 
	C1453.013550,864.774841 1453.024292,1071.099365 1452.999634,1277.423950 
	C1452.996338,1304.174316 1436.970947,1324.371704 1411.744995,1329.496948 
	C1408.344971,1330.187866 1404.795532,1330.370117 1401.312988,1330.389893 
	C1385.358154,1330.480713 1369.402466,1330.429810 1352.999390,1330.429810 
	C1352.999390,1328.420776 1352.999390,1326.792725 1352.999390,1325.164795 
	C1353.001099,1238.501831 1353.031860,1151.838867 1352.906006,1065.176025 
	C1352.900635,1061.420532 1354.001587,1059.734497 1357.425171,1058.251831 
	C1380.243042,1048.368896 1392.624634,1024.623291 1387.933594,1000.287781 
	C1383.340698,976.461365 1362.090454,958.771912 1337.493652,958.299866 
	C1313.273438,957.835022 1291.597168,974.670166 1286.002441,998.291016 
	C1280.324707,1022.262573 1291.930664,1046.984619 1314.130005,1057.453613 
	C1318.001709,1059.279419 1319.290649,1061.266479 1319.282837,1065.595947 
	C1319.125366,1151.758545 1319.162598,1237.921631 1319.160645,1324.084595 
	C1319.160522,1326.052734 1319.160767,1328.020874 1319.160767,1330.354736 
	C1317.219116,1330.449707 1315.766724,1330.582153 1314.314331,1330.582764 
	C1283.482300,1330.597656 1252.649658,1330.490234 1221.819214,1330.714111 
	C1217.063477,1330.748535 1216.060547,1329.250122 1216.065918,1324.780884 
	C1216.184448,1226.285156 1216.185425,1127.789429 1216.053101,1029.293701 
	C1216.047607,1025.253662 1217.446411,1023.574524 1220.962158,1021.977478 
	C1242.344849,1012.264038 1253.849121,991.137634 1251.037354,967.370972 
	C1248.497803,945.904907 1231.484863,927.758667 1209.739502,923.321960 
	C1183.758911,918.021179 1158.249390,933.138245 1149.651733,958.930298 
	C1141.526855,983.304199 1153.757568,1011.069824 1177.730225,1021.859802 
	C1181.559448,1023.583313 1182.710693,1025.500732 1182.705811,1029.552979 
	C1182.591919,1123.201660 1182.617920,1216.850586 1182.617676,1310.999146 
M1370.008301,775.517822 
	C1382.788452,762.983459 1387.175903,747.448792 1384.615723,730.252563 
	C1381.068970,706.429688 1360.161865,687.824646 1337.162476,686.899658 
	C1310.189331,685.815002 1288.883057,701.152527 1282.437744,726.293945 
	C1276.423462,749.753357 1287.755127,774.336792 1309.860962,785.322510 
	C1312.953979,786.859619 1314.134766,788.574219 1314.101196,792.105408 
	C1313.910522,812.102295 1314.003540,832.101807 1313.999878,852.100464 
	C1313.999634,853.883545 1313.999756,855.666626 1313.999756,857.722595 
	C1312.010010,857.834839 1310.551147,857.989136 1309.092407,857.989075 
	C1159.436157,857.979309 1009.779846,857.965637 860.123596,857.923035 
	C847.839539,857.919556 842.029480,863.552673 842.006409,875.885620 
	C841.978699,890.717896 841.913879,905.551208 842.079651,920.381775 
	C842.114136,923.470276 841.338501,925.001465 838.303467,926.252625 
	C818.141724,934.563843 805.872375,953.053162 805.855591,974.636841 
	C805.838806,996.274292 818.394714,1014.719727 838.910583,1023.196777 
	C857.593384,1030.916260 880.101074,1026.117432 895.173279,1011.201294 
	C920.054199,986.577820 912.981689,944.122192 881.342529,927.820740 
	C879.756897,927.003845 877.406311,925.462097 877.368164,924.198914 
	C877.048462,913.593994 877.186279,902.975220 877.186279,891.834900 
	C880.180115,891.834900 882.637695,891.834900 885.095276,891.834900 
	C1017.419617,891.834900 1149.744019,891.835266 1282.068359,891.834290 
	C1298.400513,891.834167 1314.733032,891.877197 1331.064819,891.806458 
	C1343.563965,891.752380 1349.125366,886.195374 1349.136963,873.857849 
	C1349.161865,847.192993 1349.232910,820.527588 1349.054199,793.863892 
	C1349.027832,789.919312 1350.366577,788.304382 1353.866943,786.511719 
	C1359.413696,783.671021 1364.313599,779.567444 1370.008301,775.517822 
M676.395569,856.060486 
	C675.767395,858.302979 675.053223,860.525330 674.523865,862.790894 
	C665.632690,900.844971 702.279480,935.365234 739.737122,924.235413 
	C761.768066,917.689331 775.545593,900.392578 777.580933,876.725281 
	C779.304626,856.682434 767.338501,836.466858 747.927917,827.074951 
	C744.848755,825.585083 743.473877,824.005188 743.509949,820.374817 
	C743.706848,800.550720 743.684875,780.722961 743.524292,760.898193 
	C743.494568,757.221863 744.480469,756.061951 748.284180,756.067383 
	C824.256104,756.175598 900.228333,756.167664 976.200378,756.089539 
	C979.444458,756.086182 981.058838,756.904297 982.440796,760.131714 
	C994.734985,788.842957 1031.540649,799.914124 1057.878052,783.019104 
	C1076.888794,770.823975 1086.138550,747.840637 1080.758301,726.168274 
	C1075.651978,705.600403 1056.824951,688.813599 1036.900635,687.063293 
	C1012.136597,684.887695 991.569458,696.324158 982.309998,717.981995 
	C980.605103,721.969788 978.591187,722.918396 974.635864,722.913696 
	C893.665649,722.816895 812.695374,722.841248 731.725098,722.839294 
	C730.559082,722.839233 729.391296,722.846130 728.227295,722.789368 
	C714.182800,722.105591 708.209473,727.713379 708.176331,741.787292 
	C708.126038,763.112732 708.147766,784.438232 708.140137,805.763733 
	C708.137878,812.072449 708.139832,818.381165 708.139832,824.678223 
	C693.153748,830.591675 682.503540,840.506226 676.395569,856.060486 
z"/>
<path fill="#2E2B2C" opacity="1.000000" stroke="none" 
	d="
M1621.407471,1537.441895 
	C1611.333374,1544.122437 1600.753052,1543.768066 1590.115845,1540.821411 
	C1587.059082,1539.974854 1584.025269,1537.892700 1581.800537,1535.586304 
	C1580.224243,1533.952271 1579.912598,1531.013428 1579.390869,1528.580933 
	C1579.340088,1528.343872 1581.764771,1527.203735 1583.079834,1527.122559 
	C1585.950073,1526.945557 1587.717773,1528.519653 1589.013306,1531.155762 
	C1589.889404,1532.938477 1591.408691,1535.239014 1593.068359,1535.673950 
	C1609.611450,1540.007690 1626.400513,1535.349854 1630.858521,1513.767090 
	C1633.371704,1501.599854 1633.270874,1489.490234 1630.440308,1477.361328 
	C1629.645020,1473.953369 1629.564087,1470.378662 1629.216797,1467.406128 
	C1620.317383,1476.311646 1611.941162,1485.219238 1602.951172,1493.456665 
	C1598.764526,1497.292969 1593.672241,1500.461792 1588.481323,1502.805542 
	C1580.863159,1506.245117 1573.137329,1501.603271 1572.233032,1493.153809 
	C1571.752563,1488.663086 1572.822998,1484.002930 1573.224487,1479.421997 
	C1574.341797,1466.669312 1580.341553,1455.835938 1588.793213,1447.006470 
	C1593.086060,1442.521729 1600.298218,1440.220825 1606.616821,1438.479614 
	C1611.611938,1437.103394 1615.553345,1441.221191 1618.499268,1445.153687 
	C1619.135132,1446.002563 1618.417358,1447.865723 1618.323242,1449.261597 
	C1617.162231,1449.137207 1615.644409,1449.442627 1614.896118,1448.821289 
	C1608.094238,1443.173340 1605.001465,1442.959351 1597.462524,1448.160400 
	C1588.310425,1454.474731 1582.242798,1463.094971 1579.246460,1473.733521 
	C1577.747192,1479.056274 1576.106567,1484.557617 1576.011230,1490.004150 
	C1575.882446,1497.359863 1579.303955,1499.149780 1586.287598,1497.195557 
	C1596.033081,1494.468506 1602.614380,1487.095093 1610.007080,1481.070557 
	C1616.986572,1475.382812 1622.385864,1468.276001 1625.192383,1459.325073 
	C1626.326904,1455.706787 1626.079712,1452.840332 1624.883301,1449.411865 
	C1623.917725,1446.644653 1624.222290,1443.434082 1623.963379,1440.420288 
	C1624.810913,1440.207764 1625.658325,1439.995361 1626.505859,1439.782959 
	C1627.660156,1442.197998 1629.316772,1444.502319 1629.877563,1447.048096 
	C1631.843018,1455.968262 1633.663940,1464.934204 1635.109619,1473.951660 
	C1637.583984,1489.385986 1636.870605,1504.870728 1633.504150,1520.029541 
	C1631.979614,1526.894043 1628.540771,1533.495361 1621.407471,1537.441895 
z"/>
<path fill="#2D2A2B" opacity="1.000000" stroke="none" 
	d="
M1022.614136,1504.075439 
	C1015.507996,1500.556396 1014.726868,1493.811035 1014.071289,1487.299438 
	C1013.441284,1481.041504 1013.600220,1474.704834 1013.377075,1468.404053 
	C1013.361023,1467.952026 1013.055176,1467.510254 1012.572510,1466.250122 
	C1009.682800,1470.634766 1007.234131,1474.673340 1004.468689,1478.481934 
	C997.789612,1487.680542 991.972168,1497.755249 981.908020,1503.826538 
	C978.936768,1505.619141 975.472046,1508.481445 971.496765,1505.982422 
	C966.829163,1503.048218 964.853210,1498.651978 964.867126,1493.097046 
	C964.902954,1478.820679 968.576782,1465.309692 973.643188,1452.182495 
	C977.674133,1441.738281 990.377075,1436.806396 1000.520630,1441.486816 
	C1003.592529,1442.904297 1006.149597,1445.452026 1008.908813,1447.526855 
	C1010.286682,1448.562988 1011.588501,1449.700439 1012.924683,1450.791992 
	C1013.447510,1450.679443 1013.970337,1450.566772 1014.493225,1450.454224 
	C1015.293213,1436.170288 1016.093201,1421.886353 1016.893188,1407.602417 
	C1017.408142,1407.472778 1017.923157,1407.343140 1018.438110,1407.213623 
	C1019.319275,1408.219360 1020.836670,1409.144165 1020.976440,1410.244141 
	C1021.779175,1416.558838 1022.913147,1422.939819 1022.675293,1429.250854 
	C1022.377930,1437.141357 1021.292847,1445.070435 1019.773804,1452.831421 
	C1017.246338,1465.744385 1018.436401,1478.637207 1019.099182,1491.549438 
	C1019.146057,1492.463135 1020.444153,1493.460815 1021.368469,1494.134155 
	C1022.108215,1494.673096 1023.196655,1494.705688 1024.069580,1495.098267 
	C1024.805054,1495.429199 1025.453003,1495.954590 1026.862183,1496.856079 
	C1025.548340,1499.217651 1024.231079,1501.585327 1022.614136,1504.075439 
M975.220398,1462.756226 
	C972.058105,1472.025513 968.916260,1481.353760 969.381592,1491.291992 
	C969.505310,1493.933350 970.786560,1497.168701 972.680420,1498.816650 
	C973.687622,1499.693481 977.708984,1498.416138 979.392944,1496.971924 
	C985.585266,1491.661621 992.092407,1486.448120 997.112244,1480.113525 
	C1002.636658,1473.142456 1006.652039,1464.975464 1011.231567,1457.482056 
	C1009.721863,1455.807495 1008.745117,1454.467285 1007.519714,1453.417114 
	C1004.721985,1451.019287 1002.087036,1447.459839 998.865417,1446.756348 
	C994.070862,1445.709351 987.471924,1444.868896 984.115967,1447.323975 
	C979.886536,1450.417969 978.149231,1456.918701 975.220398,1462.756226 
z"/>
<path fill="#2C292A" opacity="1.000000" stroke="none" 
	d="
M821.863464,1455.526611 
	C819.290833,1456.437500 816.421387,1456.840088 816.039307,1453.827881 
	C815.711243,1451.241455 816.926514,1448.778320 820.425476,1447.995850 
	C825.005493,1446.971802 829.469849,1445.329102 833.862976,1443.638184 
	C835.031372,1443.188599 835.757080,1441.588623 835.988770,1441.321289 
	C841.212219,1443.010620 845.788208,1444.612671 850.435303,1445.971436 
	C866.152832,1450.567139 878.262146,1470.434326 877.218994,1484.689453 
	C876.393555,1495.968018 871.959412,1500.055908 860.966309,1498.894897 
	C854.490906,1498.211060 847.977295,1497.889038 841.089600,1497.375122 
	C840.674988,1509.656494 840.311157,1521.841431 839.828674,1534.021729 
	C839.640076,1538.782227 839.352234,1543.553467 838.749634,1548.273926 
	C838.567200,1549.702393 837.176819,1550.976562 835.532043,1551.938721 
	C835.819214,1518.045776 835.862000,1484.575684 835.613647,1449.801514 
	C830.072815,1452.018921 826.071655,1453.620117 821.863464,1455.526611 
M848.317139,1452.041870 
	C845.803589,1451.607178 843.289978,1451.172485 840.331055,1450.660767 
	C840.747070,1456.088501 841.338806,1460.679443 841.398010,1465.277344 
	C841.499939,1473.194946 841.169434,1481.118408 841.289246,1489.035278 
	C841.307129,1490.213867 842.724060,1492.324829 843.604126,1492.384766 
	C850.270264,1492.838989 856.969971,1493.135010 863.646729,1492.971191 
	C867.505859,1492.876465 870.576782,1491.424438 872.096069,1486.931274 
	C875.922974,1475.613159 863.994934,1453.945801 848.317139,1452.041870 
z"/>
<path fill="#2E2B2C" opacity="1.000000" stroke="none" 
	d="
M496.911194,1465.928467 
	C496.112122,1475.396362 495.208160,1484.391602 494.600586,1493.406982 
	C494.537506,1494.343018 496.295349,1495.351440 497.101501,1496.407715 
	C498.341095,1498.032227 499.488037,1499.727417 501.400360,1502.411743 
	C498.622009,1503.524658 494.838989,1505.574219 494.483765,1505.093018 
	C492.592072,1502.530640 490.523010,1499.367798 490.426392,1496.351562 
	C490.158905,1488.000488 490.842407,1479.619385 491.130188,1471.249512 
	C491.146576,1470.773804 490.985413,1470.291992 490.621887,1468.075195 
	C480.025757,1482.397339 471.294708,1496.925903 457.194275,1506.181519 
	C448.216461,1501.952637 448.018707,1494.564087 448.958374,1486.722168 
	C449.685699,1480.651855 449.660278,1474.360107 451.341705,1468.565063 
	C454.041321,1459.260742 456.954346,1449.788818 461.519653,1441.327759 
	C465.196198,1434.513794 471.546906,1433.552612 479.147095,1436.065796 
	C483.014130,1437.344604 486.672852,1439.278809 490.568604,1440.435791 
	C493.047241,1441.171753 495.788086,1441.024780 498.707916,1441.301880 
	C502.603546,1446.130371 497.824310,1451.326050 497.927094,1456.696777 
	C497.982849,1459.610718 497.261780,1462.539429 496.911194,1465.928467 
M459.631561,1461.214355 
	C457.432648,1471.532349 455.096619,1481.824707 453.169067,1492.193115 
	C452.845459,1493.933838 454.290161,1496.003174 454.917877,1497.920776 
	C456.656555,1497.293823 458.940857,1497.166382 460.045807,1495.959229 
	C467.518433,1487.795654 474.525940,1479.200073 482.123260,1471.159302 
	C486.972107,1466.027466 489.137909,1459.637939 491.808044,1453.480469 
	C492.484253,1451.921021 492.032593,1448.887329 490.887268,1447.703979 
	C487.114166,1443.805420 482.167511,1442.132568 476.682617,1441.851318 
	C470.083313,1441.513062 464.658020,1444.721436 462.391571,1450.981079 
	C461.286865,1454.032227 460.661346,1457.256836 459.631561,1461.214355 
z"/>
<path fill="#2D2A2B" opacity="1.000000" stroke="none" 
	d="
M1269.607666,1469.750977 
	C1269.074707,1477.393066 1268.985107,1484.665527 1267.848633,1491.770508 
	C1267.073242,1496.617065 1272.804810,1496.463867 1273.017212,1500.149658 
	C1273.050415,1500.727783 1273.569458,1501.277954 1274.380371,1502.828247 
	C1271.719360,1503.705322 1267.797729,1505.572388 1267.424072,1505.023560 
	C1265.615845,1502.367798 1263.904053,1499.110352 1263.732056,1495.979492 
	C1263.257446,1487.341064 1263.567993,1478.659546 1263.567993,1468.809448 
	C1261.577148,1471.191772 1259.877075,1473.200928 1258.204102,1475.232544 
	C1250.459351,1484.637329 1242.794312,1494.109863 1234.904297,1503.391113 
	C1233.720703,1504.783325 1231.496704,1505.290894 1229.855103,1506.154541 
	C1227.999390,1504.684570 1226.342896,1503.368286 1224.682007,1502.057617 
	C1220.164185,1498.491943 1221.952148,1493.285889 1221.980225,1488.984741 
	C1222.025146,1482.066895 1223.064941,1475.053833 1224.576050,1468.279785 
	C1225.766724,1462.942749 1228.283813,1457.898926 1230.244629,1452.737305 
	C1231.793701,1448.659790 1232.664185,1444.075073 1235.135132,1440.653931 
	C1239.137939,1435.111938 1245.130371,1433.542114 1251.765381,1435.894897 
	C1255.930542,1437.372070 1259.955811,1439.276489 1264.175903,1440.553345 
	C1266.496582,1441.255615 1269.090332,1441.055298 1272.986572,1441.381348 
	C1272.637207,1444.668579 1272.280518,1448.497192 1271.813110,1452.312256 
	C1271.118164,1457.983398 1270.344727,1463.644653 1269.607666,1469.750977 
M1245.504028,1483.951416 
	C1249.175293,1479.145020 1253.170166,1474.546509 1256.428467,1469.474976 
	C1259.799072,1464.228516 1262.658813,1458.617065 1265.273926,1452.949341 
	C1265.898315,1451.595825 1265.279297,1448.731934 1264.171509,1447.684082 
	C1260.147217,1443.877686 1255.147827,1442.037842 1249.506714,1441.828369 
	C1243.140259,1441.591919 1237.900024,1444.784424 1235.695312,1450.829590 
	C1234.638062,1453.728516 1233.721924,1456.706909 1233.067993,1459.720093 
	C1230.696899,1470.643799 1228.350586,1481.576416 1226.304565,1492.563354 
	C1226.008179,1494.155396 1226.931519,1496.838257 1228.159180,1497.581909 
	C1229.174927,1498.197266 1231.868042,1497.148193 1233.131226,1496.048218 
	C1237.298462,1492.418335 1241.154175,1488.430786 1245.504028,1483.951416 
z"/>
<path fill="#2C292A" opacity="1.000000" stroke="none" 
	d="
M897.863770,1462.531982 
	C899.096863,1457.709595 900.617126,1453.347046 901.489868,1448.858643 
	C903.104492,1440.555298 912.707581,1431.524658 923.470276,1436.095337 
	C927.220703,1437.687988 931.009033,1439.252319 934.901978,1440.425049 
	C937.200989,1441.117432 939.738770,1441.017456 942.967773,1441.357910 
	C946.841187,1446.065552 942.193481,1451.554688 941.852112,1457.069580 
	C941.319580,1465.671997 939.907593,1474.218018 938.947388,1482.796875 
	C938.704102,1484.971191 939.143188,1487.278320 938.605103,1489.352295 
	C937.095764,1495.169922 943.094116,1497.152222 944.870300,1502.516724 
	C942.741394,1503.411865 940.538391,1505.017944 938.383606,1504.955566 
	C937.316895,1504.924683 935.532288,1501.856934 935.456787,1500.103394 
	C935.078186,1491.311035 935.145752,1482.499023 935.088379,1473.693604 
	C935.080078,1472.429199 935.244751,1471.163696 934.616028,1469.425049 
	C924.134155,1482.462280 915.334900,1496.913940 901.150146,1506.273926 
	C899.135498,1504.752563 897.443726,1503.516724 895.797119,1502.223389 
	C891.142822,1498.567993 892.784302,1493.231323 892.943359,1488.754761 
	C893.144043,1483.108398 894.937927,1477.518188 896.052124,1471.905273 
	C896.645996,1468.913452 897.256042,1465.925049 897.863770,1462.531982 
M906.972778,1449.731689 
	C905.256775,1455.697876 903.254761,1461.599854 901.894287,1467.646118 
	C900.019165,1475.979248 898.477051,1484.397949 897.167297,1492.838257 
	C896.925049,1494.399170 898.065796,1496.722778 899.333618,1497.746704 
	C900.001648,1498.286011 902.652710,1497.155396 903.834717,1496.122314 
	C907.135620,1493.237427 910.165649,1490.038208 913.251648,1486.912598 
	C922.170166,1477.879028 929.717773,1467.947632 934.897156,1456.195923 
	C937.092529,1451.214600 936.782471,1448.321899 931.882141,1445.323364 
	C924.184998,1440.613647 912.354370,1439.544189 906.972778,1449.731689 
z"/>
<path fill="#2C2829" opacity="1.000000" stroke="none" 
	d="
M786.385376,1460.385864 
	C781.291626,1469.339844 776.461304,1478.062256 771.702087,1486.823120 
	C768.157715,1493.347900 764.705322,1499.922729 761.211914,1506.475220 
	C760.484558,1506.428833 759.757202,1506.382568 759.029846,1506.336182 
	C758.286865,1503.716553 756.853943,1501.079224 756.921143,1498.480469 
	C757.203430,1487.561768 757.353699,1476.586060 758.636230,1465.759399 
	C760.585999,1449.299438 760.338745,1433.150513 755.548340,1417.174927 
	C755.138733,1415.808716 755.894104,1414.093262 756.108276,1412.539917 
	C756.786743,1412.392212 757.465210,1412.244507 758.143677,1412.096802 
	C759.886963,1416.152100 762.717041,1420.087280 763.181152,1424.284058 
	C764.977478,1440.526367 764.594543,1456.810547 762.480347,1473.057983 
	C761.695251,1479.090942 761.624878,1485.216797 762.141479,1491.645752 
	C765.492859,1485.230103 768.605957,1478.674438 772.265015,1472.439453 
	C775.665039,1466.646240 779.270813,1460.889160 783.491882,1455.689209 
	C786.898193,1451.493042 791.278870,1448.062378 795.376526,1444.461914 
	C797.908386,1442.237427 800.626892,1442.924072 802.008728,1445.673828 
	C803.733276,1449.105469 805.693909,1452.871948 805.838257,1456.561035 
	C806.312439,1468.683228 805.846802,1480.839478 806.124512,1492.973877 
	C806.193359,1495.980103 808.050171,1498.910645 808.429016,1501.957520 
	C808.663696,1503.845093 808.263489,1507.009644 807.095459,1507.635132 
	C804.281189,1509.142334 803.025696,1506.559204 802.471985,1504.149292 
	C800.355652,1494.938354 801.065002,1485.613403 801.215210,1476.275757 
	C801.354126,1467.641113 800.708984,1458.993774 800.409119,1450.351929 
	C799.689941,1450.083374 798.970764,1449.814697 798.251526,1449.546021 
	C794.394165,1453.087646 790.536743,1456.629150 786.385376,1460.385864 
z"/>
<path fill="#2D292A" opacity="1.000000" stroke="none" 
	d="
M631.065735,1469.738525 
	C635.063538,1459.549072 640.700439,1451.105225 649.870850,1445.235107 
	C655.014709,1449.066040 655.107178,1454.735474 656.049561,1460.138672 
	C657.779236,1470.056763 659.436157,1480.003052 661.678162,1489.810791 
	C663.096741,1496.016602 666.256836,1496.901611 671.162598,1492.674194 
	C674.719421,1489.609253 677.567566,1485.735962 680.931946,1482.426636 
	C682.321228,1481.060303 684.234375,1480.226562 685.909302,1479.150513 
	C685.655762,1480.985596 685.985291,1483.227783 685.040771,1484.580322 
	C682.062866,1488.844727 678.870361,1493.030151 675.259216,1496.760498 
	C671.930054,1500.199585 667.361694,1502.440552 662.686523,1500.530396 
	C657.720947,1498.501465 656.001770,1493.640137 655.254150,1488.459595 
	C653.797119,1478.362793 652.191467,1468.286743 650.532959,1458.220825 
	C650.303955,1456.831055 649.422607,1455.548950 648.670837,1453.820679 
	C641.984985,1460.857178 637.237122,1468.590088 632.868408,1476.818359 
	C629.220459,1483.688965 623.835388,1489.640259 619.186218,1495.974243 
	C617.924866,1497.692749 616.674316,1499.453735 615.178162,1500.955566 
	C613.684875,1502.454224 611.889648,1503.652100 610.226685,1504.981812 
	C608.930420,1502.806885 606.494873,1500.619507 606.518738,1498.459106 
	C606.703918,1481.754883 607.362732,1465.055664 607.893860,1448.355591 
	C607.903625,1448.049561 608.148438,1447.751099 608.856506,1446.169800 
	C610.277039,1447.523315 612.324951,1448.547119 612.393860,1449.690186 
	C612.855774,1457.348511 613.168701,1465.038452 612.991760,1472.705933 
	C612.835571,1479.478149 611.980713,1486.234375 611.434265,1492.997681 
	C612.031494,1493.277466 612.628784,1493.557373 613.226074,1493.837280 
	C619.122986,1485.921143 625.019897,1478.004883 631.065735,1469.738525 
z"/>
<path fill="#2C292A" opacity="1.000000" stroke="none" 
	d="
M1357.973145,1468.256958 
	C1357.364746,1476.859131 1356.723999,1484.987793 1356.083252,1493.116455 
	C1356.519165,1493.340088 1356.954956,1493.563843 1357.390869,1493.787598 
	C1359.829224,1490.971558 1362.599609,1488.375122 1364.637451,1485.294189 
	C1369.019409,1478.668701 1372.984619,1471.769165 1377.193359,1465.027466 
	C1381.887207,1457.509155 1386.425903,1449.832642 1394.623657,1445.333618 
	C1400.040771,1449.278564 1399.845825,1455.435303 1400.871826,1461.142700 
	C1402.593262,1470.719849 1404.142334,1480.341187 1406.303955,1489.820923 
	C1407.694702,1495.919556 1411.185059,1496.911377 1415.895752,1492.670776 
	C1419.631714,1489.307739 1422.638550,1485.147461 1426.178711,1481.547363 
	C1427.298584,1480.408813 1429.094727,1479.935303 1430.581299,1479.157471 
	C1430.471680,1480.723999 1430.931519,1482.698364 1430.152954,1483.786255 
	C1426.927490,1488.292725 1423.568481,1492.756348 1419.792358,1496.800415 
	C1416.495850,1500.330688 1411.840576,1502.437012 1407.257446,1500.527832 
	C1402.367065,1498.490723 1400.671631,1493.535156 1399.869019,1488.406738 
	C1398.088135,1477.027832 1396.174805,1465.669556 1393.060059,1453.841797 
	C1389.811157,1457.929199 1385.989990,1461.688965 1383.426025,1466.168457 
	C1376.998291,1477.397827 1370.885742,1488.776855 1361.631470,1498.059570 
	C1360.954224,1498.739014 1360.775635,1499.927124 1360.082520,1500.577026 
	C1358.416992,1502.138184 1356.583496,1503.520142 1354.817749,1504.974365 
	C1353.769775,1502.315430 1351.904785,1499.680298 1351.826660,1496.993164 
	C1351.589844,1488.841797 1352.090332,1480.671143 1352.215942,1472.506592 
	C1352.327271,1465.267090 1352.229858,1458.022827 1352.452637,1450.787598 
	C1352.492676,1449.482910 1353.638306,1448.212402 1354.273560,1446.926025 
	C1355.250488,1447.996582 1356.976562,1449.000977 1357.078125,1450.148926 
	C1357.596558,1456.006714 1357.695312,1461.901611 1357.973145,1468.256958 
z"/>
<path fill="#2C292A" opacity="1.000000" stroke="none" 
	d="
M1530.937744,1467.285889 
	C1530.134399,1462.678101 1529.386719,1458.503052 1528.639160,1454.328003 
	C1528.136353,1454.181030 1527.633423,1454.034180 1527.130493,1453.887207 
	C1523.680542,1458.626831 1519.845581,1463.137451 1516.861206,1468.153931 
	C1510.761719,1478.407104 1505.098633,1488.913696 1496.616699,1497.516968 
	C1495.821411,1498.323730 1495.537354,1499.655518 1494.709351,1500.404907 
	C1492.921021,1502.023193 1490.933350,1503.421265 1489.027344,1504.909668 
	C1488.060425,1502.194946 1486.283569,1499.484985 1486.268066,1496.764771 
	C1486.204224,1485.520874 1486.712891,1474.274658 1486.929810,1463.027710 
	C1487.031128,1457.777954 1486.947021,1452.524780 1486.947021,1446.906738 
	C1494.023438,1447.102783 1492.468872,1452.957275 1492.632568,1455.691650 
	C1493.091919,1463.362183 1492.140869,1471.120483 1491.694092,1478.840942 
	C1491.419434,1483.587891 1491.049072,1488.329224 1490.694824,1493.462402 
	C1491.966431,1493.163086 1493.078979,1493.245728 1493.439209,1492.764771 
	C1498.781982,1485.631958 1504.242798,1478.570557 1509.200195,1471.173584 
	C1511.685791,1467.464600 1512.672852,1462.716431 1515.299072,1459.145508 
	C1519.073730,1454.013550 1523.725708,1449.526855 1528.073486,1444.686401 
	C1534.310669,1448.877441 1534.259521,1454.864258 1535.230347,1460.575317 
	C1536.915161,1470.487671 1538.706543,1480.400391 1541.005737,1490.182983 
	C1542.376465,1496.015503 1545.623535,1496.858032 1550.314941,1492.772583 
	C1553.867920,1489.678711 1556.750122,1485.824463 1560.038330,1482.411987 
	C1561.458130,1480.938599 1563.148804,1479.726074 1565.615601,1477.631714 
	C1565.797241,1480.198120 1566.268677,1481.389160 1565.869263,1482.067017 
	C1562.123413,1488.425537 1558.453491,1495.004761 1551.839722,1498.837646 
	C1543.373047,1503.744385 1536.325439,1500.058472 1534.556641,1490.013184 
	C1533.251587,1482.602295 1532.172974,1475.151611 1530.937744,1467.285889 
z"/>
<path fill="#2C292A" opacity="1.000000" stroke="none" 
	d="
M563.927124,1474.736816 
	C556.976318,1482.001831 550.458740,1489.164551 543.590271,1495.973267 
	C540.838867,1498.700684 537.567383,1501.279175 534.038757,1502.690918 
	C532.228394,1503.415039 528.258606,1502.156982 527.131653,1500.514038 
	C524.101990,1496.097412 522.791016,1491.014648 523.123291,1485.291138 
	C523.846008,1472.840942 523.770325,1460.345825 524.236633,1447.877075 
	C524.279053,1446.742554 525.878540,1445.666504 526.754944,1444.563232 
	C527.922729,1445.593506 530.130737,1446.660156 530.096252,1447.648560 
	C529.774170,1456.875366 528.838623,1466.081787 528.555664,1475.308594 
	C528.379822,1481.042114 528.825439,1486.821655 529.433655,1492.533569 
	C529.594116,1494.040527 531.392822,1495.373169 533.068420,1497.635254 
	C541.347229,1489.743530 548.992249,1482.047485 557.085938,1474.856445 
	C565.043213,1467.786865 570.295105,1459.213745 573.556580,1449.211426 
	C574.047729,1447.705078 575.312622,1446.451050 576.425537,1444.769043 
	C580.363525,1448.516602 578.975281,1451.898804 577.733337,1455.326904 
	C575.686584,1460.976807 573.049622,1466.526733 571.920593,1472.362427 
	C570.839111,1477.952271 570.916626,1483.881958 571.299194,1489.607788 
	C571.702759,1495.647827 580.753418,1501.489624 586.326538,1497.192749 
	C587.683044,1496.147095 589.862854,1496.169312 591.993408,1495.614746 
	C590.705200,1503.119873 579.681152,1506.818115 573.845337,1502.466309 
	C568.201965,1498.257812 566.636353,1492.064575 566.066345,1485.577515 
	C565.715088,1481.579346 566.001282,1477.525269 566.001282,1473.591309 
	C565.530273,1473.467407 565.302490,1473.345459 565.242432,1473.401855 
	C564.880127,1473.742676 564.556213,1474.124390 563.927124,1474.736816 
z"/>
<path fill="#2C292A" opacity="1.000000" stroke="none" 
	d="
M1175.470947,1458.053711 
	C1179.422607,1450.981079 1182.657593,1443.872192 1189.267334,1439.097778 
	C1195.464478,1434.621338 1203.101196,1436.842529 1205.072754,1444.272217 
	C1205.874023,1447.291992 1205.844971,1450.956421 1204.922119,1453.933472 
	C1201.530396,1464.875366 1193.341675,1470.888306 1182.550903,1473.322876 
	C1179.647339,1473.977905 1175.917114,1471.764282 1175.422485,1477.071411 
	C1175.139160,1480.112915 1174.160400,1483.085205 1173.589111,1486.106323 
	C1173.318726,1487.535889 1173.258301,1489.005981 1173.122681,1490.459717 
	C1172.447998,1497.689087 1176.709106,1502.464722 1183.885620,1503.135376 
	C1194.898926,1504.164917 1200.921143,1496.317383 1208.819214,1489.863281 
	C1209.194336,1491.102051 1210.326050,1492.915894 1209.848999,1493.587769 
	C1207.452393,1496.963867 1204.998901,1500.476196 1201.862061,1503.099854 
	C1198.836304,1505.630493 1195.152954,1507.731567 1191.411377,1508.987061 
	C1176.294067,1514.059570 1168.401123,1502.719360 1168.775269,1489.988647 
	C1169.010132,1481.992188 1170.644775,1474.040039 1171.558960,1466.057617 
	C1171.742920,1464.451050 1171.638794,1462.781494 1171.443481,1461.168091 
	C1171.073975,1458.115234 1172.497681,1457.492920 1175.470947,1458.053711 
M1197.447144,1443.261841 
	C1194.447021,1444.475830 1190.372070,1444.859985 1188.664307,1447.071899 
	C1184.785400,1452.096069 1182.028198,1457.996338 1179.010864,1463.645020 
	C1178.862183,1463.923584 1180.562866,1465.882690 1181.418091,1465.894287 
	C1187.714844,1465.979004 1199.952393,1455.616333 1200.994385,1449.357422 
	C1201.399170,1446.925415 1201.596069,1444.226929 1197.447144,1443.261841 
z"/>
<path fill="#2D292A" opacity="1.000000" stroke="none" 
	d="
M372.949493,1499.129639 
	C367.156342,1493.213379 365.055786,1486.455322 365.854431,1478.605469 
	C366.834961,1468.968140 367.474548,1459.295532 368.495209,1449.662964 
	C368.941193,1445.454102 370.003204,1441.312866 370.717407,1437.129272 
	C371.193878,1434.338379 371.126038,1431.360718 372.132446,1428.792114 
	C372.665833,1427.430786 374.971832,1426.764160 376.477570,1425.783936 
	C377.271332,1427.307007 378.934479,1428.966187 378.720825,1430.331543 
	C377.070435,1440.877686 374.741211,1451.322388 373.251678,1461.887451 
	C371.968079,1470.991699 370.270447,1480.162109 373.816193,1489.329590 
	C375.819305,1494.508545 379.539825,1497.143921 384.522522,1497.431152 
	C390.432709,1497.772095 396.445007,1497.453857 402.336731,1496.766724 
	C413.481506,1495.467041 424.577179,1493.736572 435.680878,1492.100952 
	C438.371704,1491.704712 441.014282,1490.980591 443.679047,1490.407227 
	C443.877625,1491.122070 444.076172,1491.836914 444.274719,1492.551636 
	C441.654144,1493.371948 439.070160,1494.344482 436.406281,1494.984741 
	C427.470306,1497.132446 418.569702,1499.516235 409.535583,1501.143921 
	C398.747894,1503.087402 387.842987,1505.680664 376.937897,1501.614014 
	C375.604034,1501.116577 374.448242,1500.141602 372.949493,1499.129639 
z"/>
<path fill="#2C2829" opacity="1.000000" stroke="none" 
	d="
M1128.688477,1502.001709 
	C1125.135986,1502.296021 1122.013306,1502.848755 1118.896851,1502.815186 
	C1112.390869,1502.745483 1105.833984,1502.795776 1099.401001,1501.982056 
	C1093.961304,1501.293945 1091.225708,1496.710327 1089.066040,1492.153809 
	C1086.059814,1485.810913 1086.475952,1479.009277 1087.109009,1472.291504 
	C1087.849609,1464.432861 1088.787476,1456.588867 1089.838501,1448.765259 
	C1090.378540,1444.745361 1091.409058,1440.793579 1092.106934,1436.791748 
	C1092.543945,1434.285645 1092.311890,1431.549561 1093.261353,1429.286377 
	C1093.891235,1427.784912 1096.079834,1426.937378 1097.570557,1425.796997 
	C1098.099731,1427.702515 1098.918213,1429.584106 1099.078857,1431.520264 
	C1099.249268,1433.574219 1098.880737,1435.691528 1098.599731,1437.761230 
	C1096.736694,1451.487427 1094.280029,1465.164185 1093.180420,1478.949951 
	C1092.641113,1485.711792 1093.767334,1493.383789 1101.765137,1496.232300 
	C1105.678711,1497.626343 1110.255859,1498.206787 1114.382935,1497.762817 
	C1128.820312,1496.209351 1143.196533,1494.078979 1157.585571,1492.091797 
	C1160.034424,1491.753784 1162.431641,1491.042847 1164.852783,1490.504150 
	C1165.004761,1491.178467 1165.156616,1491.852661 1165.308594,1492.526978 
	C1153.246094,1495.682861 1141.183594,1498.838745 1128.688477,1502.001709 
z"/>
<path fill="#2C292A" opacity="1.000000" stroke="none" 
	d="
M737.016418,1489.073364 
	C729.726929,1500.520874 719.100098,1505.093262 706.350952,1505.200562 
	C700.802673,1505.247192 697.782349,1501.232910 695.626648,1496.692871 
	C691.803162,1488.640625 692.166199,1480.166016 694.826416,1472.086182 
	C697.640137,1463.540283 701.419556,1455.285278 705.174438,1447.084961 
	C708.130310,1440.629761 713.075500,1440.803589 719.494568,1443.112061 
	C728.556702,1446.371216 728.080750,1453.316162 728.742798,1460.180786 
	C728.895020,1461.759033 727.569580,1463.479858 726.924133,1465.135010 
	C726.195068,1465.103882 725.466064,1465.072876 724.737000,1465.041748 
	C723.859314,1462.368042 723.246338,1459.566528 722.033386,1457.054688 
	C720.677002,1454.245850 719.334900,1450.324707 716.979431,1449.368286 
	C713.624023,1448.006104 710.117676,1450.054199 707.821472,1453.617432 
	C701.298401,1463.740112 698.042358,1474.846924 697.481812,1486.750488 
	C697.102173,1494.813232 703.122009,1499.812866 711.092834,1498.260254 
	C724.343689,1495.679321 734.481384,1488.827515 740.364746,1476.303833 
	C742.352417,1479.537109 741.645447,1482.209473 737.016418,1489.073364 
z"/>
<path fill="#FD812A" opacity="1.000000" stroke="none" 
	d="
M1026.557617,959.038330 
	C1041.320068,956.597778 1049.531372,970.775574 1044.487915,981.197388 
	C1041.432251,987.511597 1035.129517,991.131287 1028.247192,990.343689 
	C1021.237305,989.541504 1015.616516,984.331543 1014.245850,977.365784 
	C1012.978149,970.923523 1016.390137,963.878723 1022.454163,960.575623 
	C1023.608459,959.946838 1024.903687,959.576904 1026.557617,959.038330 
z"/>
<path fill="#FD812A" opacity="1.000000" stroke="none" 
	d="
M1004.553101,1190.611450 
	C997.153076,1195.565552 990.600647,1195.805664 984.787292,1191.569092 
	C979.503418,1187.718384 976.997681,1180.883301 978.638306,1174.796387 
	C980.438232,1168.118408 985.429993,1163.633911 991.880310,1162.900024 
	C999.108154,1162.077759 1005.243164,1165.323975 1008.385742,1171.633545 
	C1011.486816,1177.859741 1010.264709,1184.291870 1004.553101,1190.611450 
z"/>
<path fill="#FD812B" opacity="1.000000" stroke="none" 
	d="
M857.994507,619.956909 
	C867.616760,621.042725 873.470154,626.802612 873.952759,635.244019 
	C874.358032,642.332642 869.136902,649.363159 862.089661,651.218140 
	C854.396362,653.243225 847.006836,649.719238 843.370605,642.444702 
	C839.359863,634.420654 843.970032,620.616211 857.994507,619.956909 
z"/>
<path fill="#FD812B" opacity="1.000000" stroke="none" 
	d="
M1348.292969,1021.260132 
	C1342.030396,1026.948364 1335.087402,1028.031982 1328.920288,1024.490112 
	C1322.978271,1021.077393 1319.897461,1014.438354 1321.052734,1007.535706 
	C1322.153564,1000.958740 1327.899780,995.689026 1335.101562,994.651978 
	C1340.941162,993.811035 1347.478882,997.178040 1350.524292,1002.594360 
	C1354.055664,1008.875610 1353.424316,1014.807068 1348.292969,1021.260132 
z"/>
<path fill="#FD812B" opacity="1.000000" stroke="none" 
	d="
M1006.211060,578.122681 
	C998.333313,585.376221 989.503296,585.649170 982.880615,579.103638 
	C976.881165,573.174072 976.489136,563.832275 981.973267,557.484009 
	C987.144653,551.497681 995.724243,550.078613 1002.206055,554.137390 
	C1009.393250,558.638000 1011.979370,566.884583 1008.519470,574.457214 
	C1007.973083,575.653015 1007.156982,576.725586 1006.211060,578.122681 
z"/>
<path fill="#FD812B" opacity="1.000000" stroke="none" 
	d="
M674.288818,572.527283 
	C672.613586,562.669800 676.226746,555.642456 684.116089,552.819763 
	C691.346619,550.232788 699.242615,553.041931 703.184692,559.603455 
	C707.851440,567.371338 704.947021,577.644592 696.866150,581.952820 
	C688.418640,586.456543 678.861694,582.604797 674.288818,572.527283 
z"/>
<path fill="#FD812A" opacity="1.000000" stroke="none" 
	d="
M1199.069458,722.885132 
	C1207.722778,723.598816 1213.642334,728.350159 1214.974854,735.289795 
	C1216.344482,742.423889 1213.180054,749.529358 1207.170532,752.713806 
	C1200.933838,756.018677 1195.000488,755.391113 1189.458008,751.127014 
	C1184.470337,747.289795 1182.251953,740.641785 1184.120728,734.612427 
	C1186.314575,727.533936 1191.207642,723.592407 1199.069458,722.885132 
z"/>
<path fill="#FD812B" opacity="1.000000" stroke="none" 
	d="
M647.061035,965.966553 
	C655.310608,960.438965 662.742920,961.000549 668.973328,967.358093 
	C673.910461,972.395874 674.694336,980.863098 670.761536,986.673889 
	C665.376282,994.630920 654.814026,996.451416 647.626587,990.661499 
	C639.614929,984.207642 639.275208,974.353210 647.061035,965.966553 
z"/>
<path fill="#FD812A" opacity="1.000000" stroke="none" 
	d="
M845.249878,1205.620117 
	C849.177551,1198.610352 854.750610,1195.543213 862.428894,1196.753174 
	C869.005981,1197.789551 873.723511,1202.389282 875.203064,1209.115234 
	C876.601868,1215.474121 874.039795,1221.708374 868.426575,1225.604736 
	C863.060791,1229.329346 855.228516,1229.039185 849.754761,1224.913086 
	C844.211182,1220.734375 842.437195,1213.539673 845.249878,1205.620117 
z"/>
<path fill="#FD812A" opacity="1.000000" stroke="none" 
	d="
M1214.908569,970.659424 
	C1215.656372,984.338379 1207.645142,992.379700 1196.067383,990.043274 
	C1189.197021,988.656738 1184.057861,982.806213 1183.516235,975.755371 
	C1183.000000,969.032959 1187.411865,962.076477 1193.778198,959.574280 
	C1200.094604,957.091736 1208.029785,959.379517 1212.050293,964.998901 
	C1213.193604,966.596985 1213.932617,968.484253 1214.908569,970.659424 
z"/>
<path fill="#2C2829" opacity="1.000000" stroke="none" 
	d="
M1298.722046,1480.986084 
	C1297.809570,1469.993896 1297.038086,1459.372681 1295.829346,1448.801514 
	C1295.538208,1446.255615 1295.455933,1444.456909 1298.199097,1444.015381 
	C1301.731689,1443.446899 1301.767578,1446.566895 1301.923340,1448.590576 
	C1302.457520,1455.526611 1302.569946,1462.494263 1302.931763,1469.445190 
	C1303.047607,1471.669800 1303.438843,1473.880005 1304.333008,1476.391968 
	C1311.756958,1463.008301 1321.651611,1452.476685 1335.605591,1446.382690 
	C1337.804077,1445.422485 1340.625244,1445.887695 1343.158447,1445.693970 
	C1343.802246,1446.583130 1344.445923,1447.472168 1345.089722,1448.361328 
	C1343.957886,1448.571655 1342.802856,1448.698486 1341.697998,1449.005127 
	C1330.805542,1452.028320 1322.466797,1458.524902 1315.968872,1467.672852 
	C1310.170898,1475.835205 1306.470215,1484.835449 1304.709229,1494.634644 
	C1304.341553,1496.680664 1304.211060,1498.968018 1304.738281,1500.938965 
	C1306.322266,1506.859253 1305.785400,1507.605225 1298.702637,1506.613281 
	C1298.702637,1498.294800 1298.702637,1489.835205 1298.722046,1480.986084 
z"/>
<path fill="#2C292A" opacity="1.000000" stroke="none" 
	d="
M1440.988281,1468.146973 
	C1441.644775,1460.060913 1442.294678,1452.444580 1442.995483,1444.232422 
	C1443.850098,1444.008667 1445.630249,1443.542480 1448.666748,1442.747314 
	C1448.781616,1445.410278 1449.215454,1447.899292 1448.938354,1450.306519 
	C1447.463623,1463.121826 1445.641479,1475.899658 1444.366211,1488.732910 
	C1444.118042,1491.230347 1445.040405,1494.795532 1446.775024,1496.211426 
	C1447.978027,1497.193359 1451.868408,1495.918457 1453.913818,1494.629517 
	C1459.131470,1491.341431 1463.948730,1487.423462 1469.024414,1483.898804 
	C1470.005981,1483.217163 1471.432861,1483.176880 1472.654419,1482.840820 
	C1472.989624,1483.255615 1473.324707,1483.670410 1473.659912,1484.085205 
	C1471.717041,1486.676392 1470.215576,1489.841919 1467.741821,1491.741821 
	C1462.203003,1495.995972 1456.446289,1500.131226 1450.274292,1503.347412 
	C1444.847046,1506.175537 1440.197754,1503.166504 1439.976807,1496.819092 
	C1439.736450,1489.916870 1440.569092,1482.979248 1440.881592,1476.054810 
	C1440.993408,1473.579102 1440.952515,1471.096313 1440.988281,1468.146973 
z"/>
<path fill="#2E2B2C" opacity="1.000000" stroke="none" 
	d="
M1442.177002,1427.171875 
	C1440.533447,1428.290771 1439.221313,1429.257690 1437.909302,1430.224487 
	C1437.490112,1429.903198 1437.071045,1429.581909 1436.651855,1429.260620 
	C1439.256226,1425.568359 1441.629761,1421.682129 1444.526855,1418.235962 
	C1447.711426,1414.448242 1451.377808,1411.065796 1454.949707,1407.387939 
	C1460.054321,1409.913452 1459.883179,1412.739014 1454.280762,1417.023560 
	C1450.197021,1420.146851 1446.421509,1423.673218 1442.177002,1427.171875 
z"/>
<path fill="#FEFEFD" opacity="1.000000" stroke="none" 
	d="
M1369.747803,775.758057 
	C1364.313599,779.567444 1359.413696,783.671021 1353.866943,786.511719 
	C1350.366577,788.304382 1349.027832,789.919312 1349.054199,793.863892 
	C1349.232910,820.527588 1349.161865,847.192993 1349.136963,873.857849 
	C1349.125366,886.195374 1343.563965,891.752380 1331.064819,891.806458 
	C1314.733032,891.877197 1298.400513,891.834167 1282.068359,891.834290 
	C1149.744019,891.835266 1017.419617,891.834900 885.095276,891.834900 
	C882.637695,891.834900 880.180115,891.834900 877.186279,891.834900 
	C877.186279,902.975220 877.048462,913.593994 877.368164,924.198914 
	C877.406311,925.462097 879.756897,927.003845 881.342529,927.820740 
	C912.981689,944.122192 920.054199,986.577820 895.173279,1011.201294 
	C880.101074,1026.117432 857.593384,1030.916260 838.910583,1023.196777 
	C818.394714,1014.719727 805.838806,996.274292 805.855591,974.636841 
	C805.872375,953.053162 818.141724,934.563843 838.303467,926.252625 
	C841.338501,925.001465 842.114136,923.470276 842.079651,920.381775 
	C841.913879,905.551208 841.978699,890.717896 842.006409,875.885620 
	C842.029480,863.552673 847.839539,857.919556 860.123596,857.923035 
	C1009.779846,857.965637 1159.436157,857.979309 1309.092407,857.989075 
	C1310.551147,857.989136 1312.010010,857.834839 1313.999756,857.722595 
	C1313.999756,855.666626 1313.999634,853.883545 1313.999878,852.100464 
	C1314.003540,832.101807 1313.910522,812.102295 1314.101196,792.105408 
	C1314.134766,788.574219 1312.953979,786.859619 1309.860962,785.322510 
	C1287.755127,774.336792 1276.423462,749.753357 1282.437744,726.293945 
	C1288.883057,701.152527 1310.189331,685.815002 1337.162476,686.899658 
	C1360.161865,687.824646 1381.068970,706.429688 1384.615723,730.252563 
	C1387.175903,747.448792 1382.788452,762.983459 1369.747803,775.758057 
M867.553528,987.162415 
	C875.309875,980.251099 876.074829,970.321899 869.381104,963.442078 
	C863.127441,957.014648 852.201294,957.207275 846.199829,963.850769 
	C840.817322,969.809021 840.636719,978.526001 845.763855,984.894958 
	C850.638062,990.949768 859.002441,992.021667 867.553528,987.162415 
M1340.276367,753.036377 
	C1347.067505,748.645081 1350.295288,741.957886 1348.768311,735.442017 
	C1347.262085,729.013794 1341.522705,723.721863 1335.310059,723.033020 
	C1328.411743,722.268188 1322.265625,725.437500 1319.101440,731.391357 
	C1315.901855,737.411987 1316.729858,744.165283 1321.318970,749.477905 
	C1325.655640,754.498291 1332.034180,755.835083 1340.276367,753.036377 
z"/>
<path fill="#FEFEFD" opacity="1.000000" stroke="none" 
	d="
M676.551392,855.699219 
	C682.503540,840.506226 693.153748,830.591675 708.139832,824.678223 
	C708.139832,818.381165 708.137878,812.072449 708.140137,805.763733 
	C708.147766,784.438232 708.126038,763.112732 708.176331,741.787292 
	C708.209473,727.713379 714.182800,722.105591 728.227295,722.789368 
	C729.391296,722.846130 730.559082,722.839233 731.725098,722.839294 
	C812.695374,722.841248 893.665649,722.816895 974.635864,722.913696 
	C978.591187,722.918396 980.605103,721.969788 982.309998,717.981995 
	C991.569458,696.324158 1012.136597,684.887695 1036.900635,687.063293 
	C1056.824951,688.813599 1075.651978,705.600403 1080.758301,726.168274 
	C1086.138550,747.840637 1076.888794,770.823975 1057.878052,783.019104 
	C1031.540649,799.914124 994.734985,788.842957 982.440796,760.131714 
	C981.058838,756.904297 979.444458,756.086182 976.200378,756.089539 
	C900.228333,756.167664 824.256104,756.175598 748.284180,756.067383 
	C744.480469,756.061951 743.494568,757.221863 743.524292,760.898193 
	C743.684875,780.722961 743.706848,800.550720 743.509949,820.374817 
	C743.473877,824.005188 744.848755,825.585083 747.927917,827.074951 
	C767.338501,836.466858 779.304626,856.682434 777.580933,876.725281 
	C775.545593,900.392578 761.768066,917.689331 739.737122,924.235413 
	C702.279480,935.365234 665.632690,900.844971 674.523865,862.790894 
	C675.053223,860.525330 675.767395,858.302979 676.551392,855.699219 
M741.310547,872.858459 
	C741.221008,872.199585 741.177856,871.530396 741.034790,870.883362 
	C739.489380,863.892944 733.605652,858.622253 726.847900,858.154846 
	C719.663757,857.657959 712.866821,862.049866 710.464905,868.740662 
	C708.007629,875.585815 710.443420,882.770081 716.581970,887.169556 
	C726.741455,894.450989 741.496460,886.859314 741.310547,872.858459 
M1028.000244,754.658264 
	C1030.605103,754.296692 1033.372070,754.375854 1035.783325,753.488342 
	C1042.208618,751.123352 1045.560425,746.043823 1045.909302,739.390320 
	C1046.251831,732.859558 1043.129517,727.835815 1037.342041,724.769104 
	C1031.510864,721.679504 1025.753174,722.149902 1020.493835,726.168335 
	C1015.632935,729.882385 1013.290894,734.885681 1014.310364,741.007019 
	C1015.529785,748.328552 1020.005432,752.771973 1028.000244,754.658264 
z"/>
<path fill="#FBFBFB" opacity="1.000000" stroke="none" 
	d="
M975.278564,1462.353027 
	C978.149231,1456.918701 979.886536,1450.417969 984.115967,1447.323975 
	C987.471924,1444.868896 994.070862,1445.709351 998.865417,1446.756348 
	C1002.087036,1447.459839 1004.721985,1451.019287 1007.519714,1453.417114 
	C1008.745117,1454.467285 1009.721863,1455.807495 1011.231567,1457.482056 
	C1006.652039,1464.975464 1002.636658,1473.142456 997.112244,1480.113525 
	C992.092407,1486.448120 985.585266,1491.661621 979.392944,1496.971924 
	C977.708984,1498.416138 973.687622,1499.693481 972.680420,1498.816650 
	C970.786560,1497.168701 969.505310,1493.933350 969.381592,1491.291992 
	C968.916260,1481.353760 972.058105,1472.025513 975.278564,1462.353027 
z"/>
<path fill="#FBFBFB" opacity="1.000000" stroke="none" 
	d="
M848.713806,1452.189209 
	C863.994934,1453.945801 875.922974,1475.613159 872.096069,1486.931274 
	C870.576782,1491.424438 867.505859,1492.876465 863.646729,1492.971191 
	C856.969971,1493.135010 850.270264,1492.838989 843.604126,1492.384766 
	C842.724060,1492.324829 841.307129,1490.213867 841.289246,1489.035278 
	C841.169434,1481.118408 841.499939,1473.194946 841.398010,1465.277344 
	C841.338806,1460.679443 840.747070,1456.088501 840.331055,1450.660767 
	C843.289978,1451.172485 845.803589,1451.607178 848.713806,1452.189209 
z"/>
<path fill="#FCFCFC" opacity="1.000000" stroke="none" 
	d="
M459.725220,1460.808594 
	C460.661346,1457.256836 461.286865,1454.032227 462.391571,1450.981079 
	C464.658020,1444.721436 470.083313,1441.513062 476.682617,1441.851318 
	C482.167511,1442.132568 487.114166,1443.805420 490.887268,1447.703979 
	C492.032593,1448.887329 492.484253,1451.921021 491.808044,1453.480469 
	C489.137909,1459.637939 486.972107,1466.027466 482.123260,1471.159302 
	C474.525940,1479.200073 467.518433,1487.795654 460.045807,1495.959229 
	C458.940857,1497.166382 456.656555,1497.293823 454.917847,1497.920654 
	C454.290161,1496.003174 452.845459,1493.933838 453.169067,1492.193115 
	C455.096619,1481.824707 457.432648,1471.532349 459.725220,1460.808594 
z"/>
<path fill="#FBFBFB" opacity="1.000000" stroke="none" 
	d="
M1245.316650,1484.265991 
	C1241.154175,1488.430786 1237.298462,1492.418335 1233.131226,1496.048218 
	C1231.868042,1497.148193 1229.174927,1498.197266 1228.159180,1497.581909 
	C1226.931519,1496.838257 1226.008179,1494.155396 1226.304565,1492.563354 
	C1228.350586,1481.576416 1230.696899,1470.643799 1233.067993,1459.720093 
	C1233.721924,1456.706909 1234.638062,1453.728516 1235.695312,1450.829590 
	C1237.900024,1444.784424 1243.140259,1441.591919 1249.506714,1441.828369 
	C1255.147827,1442.037842 1260.147217,1443.877686 1264.171509,1447.684082 
	C1265.279297,1448.731934 1265.898315,1451.595825 1265.273926,1452.949341 
	C1262.658813,1458.617065 1259.799072,1464.228516 1256.428467,1469.474976 
	C1253.170166,1474.546509 1249.175293,1479.145020 1245.316650,1484.265991 
z"/>
<path fill="#FBFBFB" opacity="1.000000" stroke="none" 
	d="
M907.126221,1449.379395 
	C912.354370,1439.544189 924.184998,1440.613647 931.882141,1445.323364 
	C936.782471,1448.321899 937.092529,1451.214600 934.897156,1456.195923 
	C929.717773,1467.947632 922.170166,1477.879028 913.251648,1486.912598 
	C910.165649,1490.038208 907.135620,1493.237427 903.834717,1496.122314 
	C902.652710,1497.155396 900.001648,1498.286011 899.333618,1497.746704 
	C898.065796,1496.722778 896.925049,1494.399170 897.167297,1492.838257 
	C898.477051,1484.397949 900.019165,1475.979248 901.894287,1467.646118 
	C903.254761,1461.599854 905.256775,1455.697876 907.126221,1449.379395 
z"/>
<path fill="#F7F6F6" opacity="1.000000" stroke="none" 
	d="
M1197.839111,1443.313110 
	C1201.596069,1444.226929 1201.399170,1446.925415 1200.994385,1449.357422 
	C1199.952393,1455.616333 1187.714844,1465.979004 1181.418091,1465.894287 
	C1180.562866,1465.882690 1178.862183,1463.923584 1179.010864,1463.645020 
	C1182.028198,1457.996338 1184.785400,1452.096069 1188.664307,1447.071899 
	C1190.372070,1444.859985 1194.447021,1444.475830 1197.839111,1443.313110 
z"/>
<path fill="#FD812A" opacity="1.000000" stroke="none" 
	d="
M867.259399,987.387146 
	C859.002441,992.021667 850.638062,990.949768 845.763855,984.894958 
	C840.636719,978.526001 840.817322,969.809021 846.199829,963.850769 
	C852.201294,957.207275 863.127441,957.014648 869.381104,963.442078 
	C876.074829,970.321899 875.309875,980.251099 867.259399,987.387146 
z"/>
<path fill="#FD812A" opacity="1.000000" stroke="none" 
	d="
M1339.915771,753.168091 
	C1332.034180,755.835083 1325.655640,754.498291 1321.318970,749.477905 
	C1316.729858,744.165283 1315.901855,737.411987 1319.101440,731.391357 
	C1322.265625,725.437500 1328.411743,722.268188 1335.310059,723.033020 
	C1341.522705,723.721863 1347.262085,729.013794 1348.768311,735.442017 
	C1350.295288,741.957886 1347.067505,748.645081 1339.915771,753.168091 
z"/>
<path fill="#FD812A" opacity="1.000000" stroke="none" 
	d="
M741.402405,873.231689 
	C741.496460,886.859314 726.741455,894.450989 716.581970,887.169556 
	C710.443420,882.770081 708.007629,875.585815 710.464905,868.740662 
	C712.866821,862.049866 719.663757,857.657959 726.847900,858.154846 
	C733.605652,858.622253 739.489380,863.892944 741.034790,870.883362 
	C741.177856,871.530396 741.221008,872.199585 741.402405,873.231689 
z"/>
<path fill="#FD812B" opacity="1.000000" stroke="none" 
	d="
M1027.614014,754.555420 
	C1020.005432,752.771973 1015.529785,748.328552 1014.310364,741.007019 
	C1013.290894,734.885681 1015.632935,729.882385 1020.493835,726.168335 
	C1025.753174,722.149902 1031.510864,721.679504 1037.342041,724.769104 
	C1043.129517,727.835815 1046.251831,732.859558 1045.909302,739.390320 
	C1045.560425,746.043823 1042.208618,751.123352 1035.783325,753.488342 
	C1033.372070,754.375854 1030.605103,754.296692 1027.614014,754.555420 
z"/>
</svg>